<svg width="11" height="14" viewBox="0 0 11 14" fill="none" xmlns="http://www.w3.org/2000/svg">
<path d="M10.8706 8.1963C10.7104 6.10833 9.73801 4.79993 8.88051 3.64521C8.08617 2.57634 7.40039 1.65321 7.40039 0.291494C7.40039 0.182119 7.33914 0.082041 7.24207 0.0320019C7.14473 -0.0183106 7.0277 -0.0101075 6.9391 0.0541503C5.65121 0.975909 4.57633 2.52931 4.2009 4.01134C3.94031 5.04329 3.90586 6.20322 3.90094 6.96939C2.71148 6.71536 2.44215 4.93611 2.43914 4.91669C2.42574 4.82427 2.36941 4.74415 2.28738 4.70013C2.20453 4.65693 2.10719 4.65365 2.02297 4.69521C1.96063 4.72529 0.491992 5.4715 0.40668 8.45087C0.400664 8.55068 0.400391 8.64994 0.400391 8.74947C0.400391 11.6441 2.75578 13.9992 5.65039 13.9992C5.65449 13.9995 5.65859 14 5.66215 13.9992C5.66324 13.9992 5.66434 13.9992 5.66598 13.9992C8.55348 13.9907 10.9004 11.6389 10.9004 8.74947C10.9004 8.60373 10.8706 8.1963 10.8706 8.1963ZM5.65039 13.4157C4.68543 13.4157 3.90039 12.5795 3.90039 11.5517C3.90039 11.5167 3.90012 11.4814 3.90258 11.4379C3.91434 11.0045 3.99664 10.7086 4.08688 10.5118C4.25613 10.8752 4.55855 11.2093 5.04992 11.2093C5.21125 11.2093 5.34168 11.0789 5.34168 10.9176C5.34168 10.5022 5.35016 10.0231 5.45352 9.59084C5.54566 9.20748 5.76551 8.79951 6.04387 8.47275C6.16773 8.89712 6.40918 9.24056 6.64516 9.5758C6.98258 10.0554 7.33148 10.5511 7.39274 11.3969C7.39656 11.4469 7.40012 11.4975 7.40012 11.5517C7.40039 12.5795 6.61535 13.4157 5.65039 13.4157Z" fill="white"/>
</svg>
