<svg xmlns="http://www.w3.org/2000/svg" viewBox="0 0 959.22 1620.15">
<defs>
<style>
.cls-1{fill:#000;}.cls-2{fill:none;stroke:#000;stroke-miterlimit:10;stroke-width:57.99px;}
</style>
</defs>
<g id="Layer_2" data-name="Layer 2">
<g id="Layer_7" data-name="Layer 7">
<path class="cls-1" d="M341.27,1620.15c-5.25,0-10.46-.2-15.55-.5-19.1-1.11-36.21-9.55-49.47-24.4-10-11.24-18-26.06-24.36-45.33-10.32-31.27-14.91-69.66-19.35-106.79-1.68-14-3.26-27.29-5.1-39.79-6.38-43.23-11.6-104.43-15.15-153.61,225.88,59.72,459-5.64,581.43-18.58-2.25,29.58-5.6,66.83-10.59,113-8.38,77.65-14.43,123.28-24.25,157.21-10.37,35.83-25.52,59.75-52.31,82.57-37.78,32.2-84.81,39.1-114.66,31.67-21.53-5.36-30.24-17.09-33.76-26-2.62-6.62-6.55-16.54-4.74-154.2-11.84,0-25.53.32-36.64,1.1-19.4,1.37-32.48,7-51.84,22.39-16.26,12.9-35.42,46.8-38,79.06-1.89,23.31-6.15,47.14-24.35,63.55C385.78,1616.61,363.2,1620.15,341.27,1620.15Zm-69.91-358.22c3.32,43.57,8,95.93,13.45,132.94,2,13.3,3.66,27.57,5.31,41.37,5.55,46.42,14.84,124.11,39,125.52,28.23,1.65,34.05-2.82,34.62-3.33,1.08-1,3.78-5.38,5.38-25.16,4.31-53.12,34-99.33,59.78-119.79,28.38-22.53,52.66-32.62,83.82-34.82,16.48-1.16,37.21-1.31,51.69-1.23a47.41,47.41,0,0,1,47.16,48.11c-1,69.62-.55,114.46.49,134.68,12.27.76,35.63-2.29,56.93-20.44,33.24-28.32,40.63-54.73,56.52-201.87,4.26-39.54,7.31-72.35,9.49-99.26,1.16-14.41-100.61,65.51-232,74.88C407.5,1320.35,270.75,1254,271.36,1261.93Zm-16.77-52.08h0Z"/>
<path class="cls-1" d="M126.15,781.14l307,69.08,28.2,412.64L174.39,1210.8l-9-80,50.36-58.25L202.53,968.34,142,922.52,126.15,781.14m-35.5-68c-16.47,0-30.22,13.75-28.36,30.34L82.54,923.85l85.22,43.47,19.91,107.75L107.26,1144,118.15,1241c1.35,12,10.74,21.74,23.12,24l330,59.87A70.77,70.77,0,0,0,484,1326c1.07,0,2.13,0,3.19-.07l37.71-1.69L489.2,802.11,97.27,713.9a30.26,30.26,0,0,0-6.62-.74Z"/>
<path class="cls-1" d="M806.2,761l0,130.77L745.8,944.51l4.09,99.07,56.42,28.93,0,115.8L533.63,1262,502.08,847,806.2,761m33.51-71.05a29,29,0,0,0-7.91,1.1L438.17,802.41l39.73,522.53,48.86-.68a66.58,66.58,0,0,0,16.32-2.28l304.17-82.22c11.52-3,19.46-12.79,19.45-23.87l-.05-141-95.32-38.81,7.15-95,88.1-61.62-.06-164.73c0-14.12-12.5-24.83-26.81-24.83Z"/>
<path class="cls-1" d="M105,689.24a18.72,18.72,0,0,0-18.65,19.53l.91,20.81a18.7,18.7,0,0,0,13.48,17.14L447.16,847.09a18.7,18.7,0,0,0,11.37-35.62L111.22,690.3a18.57,18.57,0,0,0-6.19-1.06Z"/>
<path class="cls-1" d="M804.26,663.14a18,18,0,0,0-7.62,1.7L481.55,811.08a18.07,18.07,0,0,0,14.14,33.25l315-122a18.08,18.08,0,0,0,11.55-16.78l.1-24.24a18.08,18.08,0,0,0-18.07-18.17Z"/>
<path class="cls-2" d="M69.49,941.08c-44.26,16.24-45.38,79.92-35.3,123.53s33.43,73.86,83.2,76.47,81.89-43.51,84.88-95-19.61-78.9-36.61-92.91S113.75,924.83,69.49,941.08Z"/>
<path class="cls-2" d="M870.45,887.11c27.65,2.1,70.74,44.56,57.21,109.87s-42,83.55-90,86.16-79.09-43.51-82-95,22-76.89,40.4-87.67S842.79,885,870.45,887.11Z"/>
<g id="head"><path class="cls-1" d="M737.13,441.9c-8.64-112.56-61.06-183.1-107.29-245.35C587,138.93,550.05,89.16,550.05,15.75A15.73,15.73,0,0,0,525.18,3C455.75,52.65,397.8,136.39,377.56,216.29c-14.05,55.63-15.91,118.16-16.17,159.47-64.12-13.7-78.64-109.62-78.81-110.66a15.8,15.8,0,0,0-8.18-11.68,15.64,15.64,0,0,0-14.25-.26C256.79,254.78,177.61,295,173,455.63c-.32,5.38-.34,10.73-.34,16.09,0,156,127.52,283,283.57,283,0,0,10.26-46.5,10.26-62.72C349,688.78,301.63,593.42,304.6,530.39c.17-3.56-.12-7.07-.14-10.57-.2-33.26,8.57-63.65,16.5-80.7,11.73,25.22,40.54,61.68,86.17,60.76,15.27-.3,26-12.73,26.1-25.41.3-35.49.74-77,10.61-116.36,8.12-32.38,26.73-67.9,52.25-96.64,12.26,40.66,37.82,74.29,53.78,96.11,33.79,46.17,67.52,100.89,67.52,173.15C614.57,597.36,572.86,691.24,466.5,692c-3.59,18.79-9.51,48.75-10.26,62.72,155.67-.46,282.5-127.24,282.5-283C738.74,463.87,737.13,441.9,737.13,441.9Z"/></g></g></g></svg>