<svg width="23" height="23" viewBox="0 0 23 23" fill="none" xmlns="http://www.w3.org/2000/svg">
<path d="M19.9771 10.764V20.9891H3.04915V10.764H1.47198V21.7777C1.47198 22.2133 1.82498 22.5663 2.26054 22.5663H20.7657C21.2013 22.5663 21.5543 22.2133 21.5543 21.7777V10.764H19.9771Z" fill="black"/>
<path d="M22.2114 4.84943H0.788559C0.352996 4.84943 0 5.20242 0 5.63798V10.79C0 11.2255 0.352996 11.5785 0.788559 11.5785H22.2114C22.647 11.5785 23 11.2258 23 10.79V5.63798C23 5.20242 22.647 4.84943 22.2114 4.84943ZM21.4228 10.0017H1.57716V6.42686H21.4229V10.0017H21.4228Z" fill="black"/>
<path d="M12.2759 5.43851C12.2223 5.23402 10.9214 0.433716 7.12339 0.433716C5.47107 0.433716 4.12683 1.77796 4.12683 3.43027C4.12683 5.08259 5.45926 6.42683 7.09711 6.42683H11.5131C11.7573 6.42683 11.9881 6.31354 12.1374 6.12006C12.2867 5.92658 12.3377 5.6748 12.2759 5.43851ZM7.09715 4.84972C6.31596 4.84972 5.70399 4.2262 5.70399 3.43027C5.70399 2.6609 6.35406 2.01083 7.12343 2.01083C8.85382 2.01083 9.88999 3.71548 10.3881 4.84967H7.09715V4.84972Z" fill="black"/>
<path d="M15.9028 0.433716C12.1048 0.433716 10.8039 5.23402 10.7503 5.43851C10.6882 5.6748 10.7395 5.92663 10.8888 6.12011C11.0381 6.31358 11.2686 6.42688 11.5131 6.42688H15.9291C17.567 6.42688 18.8994 5.08264 18.8994 3.43032C18.8994 1.77796 17.5552 0.433716 15.9028 0.433716ZM15.9291 4.84972H12.635C13.1295 3.71548 14.1625 2.01088 15.9031 2.01088C16.6725 2.01088 17.3226 2.66094 17.3226 3.43032C17.3225 4.2262 16.7106 4.84972 15.9291 4.84972Z" fill="black"/>
<path d="M12.3017 5.63831H10.7245V21.7777H12.3017V5.63831Z" fill="black"/>
</svg>
