<svg width="26" height="26" viewBox="0 0 26 26" fill="none" xmlns="http://www.w3.org/2000/svg">
<path d="M10.8242 7H6.76172C6.34105 7 6 7.34105 6 7.76172C6 8.18239 6.34105 8.52344 6.76172 8.52344H10.8242C11.2449 8.52344 11.5859 8.18239 11.5859 7.76172C11.5859 7.34105 11.2449 7 10.8242 7Z" fill="black"/>
<path d="M10.8242 11H6.76172C6.34105 11 6 11.341 6 11.7617C6 12.1824 6.34105 12.5234 6.76172 12.5234H10.8242C11.2449 12.5234 11.5859 12.1824 11.5859 11.7617C11.5859 11.341 11.2449 11 10.8242 11Z" fill="black"/>
<path d="M10.8242 15H6.76172C6.34105 15 6 15.341 6 15.7617C6 16.1824 6.34105 16.5234 6.76172 16.5234H10.8242C11.2449 16.5234 11.5859 16.1824 11.5859 15.7617C11.5859 15.341 11.2449 15 10.8242 15Z" fill="black"/>
<path d="M19.8301 13.9612V7.0068C19.8301 6.00285 19.443 5.05573 18.7401 4.33941L15.6494 1.14329C15.6479 1.14177 15.6464 1.14019 15.6449 1.13867C14.9333 0.415035 13.9432 0 12.9284 0H3.12305C1.86301 0 0.837891 1.02512 0.837891 2.28516V22.0391C0.837891 23.2991 1.86301 24.3242 3.12305 24.3242H14.8958C15.9813 25.3618 17.4517 26 19.0684 26C22.4285 26 25.1621 23.2891 25.1621 19.957C25.1621 16.8807 22.832 14.3341 19.8301 13.9612ZM2.36133 22.0391V2.28516C2.36133 1.86514 2.70304 1.52344 3.12305 1.52344H12.9284C13.5365 1.52344 14.1298 1.77181 14.5568 2.20482L17.6468 5.40043C17.6483 5.40196 17.6498 5.40348 17.6512 5.40495C18.0739 5.83492 18.3066 6.40377 18.3066 7.00685V13.9619C15.3328 14.3376 13.0254 16.8829 13.0254 19.9571C13.0254 20.9845 13.2835 21.9528 13.7377 22.8008H3.12305C2.70304 22.8008 2.36133 22.4591 2.36133 22.0391ZM19.0684 24.4766C16.5763 24.4766 14.5488 22.4491 14.5488 19.957C14.5488 17.4649 16.5763 15.4375 19.0684 15.4375C21.5884 15.4375 23.6387 17.4649 23.6387 19.957C23.6387 22.4491 21.5884 24.4766 19.0684 24.4766Z" fill="black"/>
<path d="M20.8255 18.1531C20.5024 17.8839 20.0221 17.9275 19.7527 18.2507L18.4671 19.7935L18.1754 19.2102C17.9873 18.8339 17.5298 18.6813 17.1535 18.8695C16.7772 19.0576 16.6247 19.5152 16.8128 19.8915L17.6253 21.5165C17.7403 21.7464 17.9635 21.9028 18.2188 21.9325C18.2482 21.9358 18.2775 21.9375 18.3067 21.9375C18.5312 21.9375 18.7462 21.8382 18.8918 21.6635L20.9231 19.226C21.1924 18.9027 21.1487 18.4224 20.8255 18.1531Z" fill="black"/>
</svg>
