<svg xmlns="http://www.w3.org/2000/svg" viewBox="0 0 566.06 754.74"><defs><style>.cls-1{fill:#fff;}</style></defs><g id="Layer_2" data-name="Layer 2"><g id="Layer_7" data-name="Layer 7"><g id="head"><path class="cls-1" d="M564.45,441.9c-8.63-112.56-61.05-183.1-107.28-245.35-42.82-57.62-79.8-107.39-79.8-180.8A15.72,15.72,0,0,0,352.51,3c-69.44,49.7-127.38,133.44-147.62,213.34-14,55.63-15.91,118.16-16.17,159.47-64.13-13.7-78.65-109.62-78.81-110.66a15.72,15.72,0,0,0-22.44-11.94C84.11,254.78,4.94,295,.34,455.63,0,461,0,466.36,0,471.72c0,156,127.52,283,283.57,283,0,0,10.25-46.5,10.25-62.72C176.36,688.78,129,593.42,131.93,530.39c.16-3.56-.12-7.07-.14-10.57-.21-33.26,8.57-63.65,16.49-80.7,11.74,25.22,40.55,61.68,86.17,60.76,15.27-.3,26-12.73,26.11-25.41.3-35.49.74-77,10.61-116.36,8.12-32.38,26.72-67.9,52.24-96.64,12.27,40.66,37.83,74.29,53.79,96.11,33.78,46.17,67.52,100.89,67.52,173.15-2.83,66.63-44.53,160.51-150.9,161.29-3.59,18.79-9.5,48.75-10.25,62.72,155.67-.46,282.49-127.24,282.49-283C566.06,463.87,564.45,441.9,564.45,441.9Z"/></g></g></g></svg>