<svg width="29" height="29" viewBox="0 0 29 29" fill="none" xmlns="http://www.w3.org/2000/svg">
<path fill-rule="evenodd" clip-rule="evenodd" d="M4.21704 14.5533C4.37735 14.3377 4.63017 14.2106 4.89881 14.2106H24.2138C24.4825 14.2106 24.7353 14.3377 24.8956 14.5533C25.0559 14.7688 25.1048 15.0475 25.0275 15.3048L22.0085 25.3489C21.9006 25.708 21.5699 25.9539 21.1949 25.9539H7.91776C7.54273 25.9539 7.21206 25.708 7.10411 25.3489L4.08516 15.3048C4.00783 15.0475 4.05674 14.7688 4.21704 14.5533ZM6.04134 15.9099L8.54955 24.2547H20.5631L23.0713 15.9099H6.04134Z" fill="black"/>
<path fill-rule="evenodd" clip-rule="evenodd" d="M11.3285 3.06964C11.7054 3.34923 11.7842 3.88137 11.5046 4.2582L5.58111 12.2417C5.30151 12.6185 4.76938 12.6973 4.39255 12.4178C4.01572 12.1382 3.93689 11.606 4.21649 11.2292L10.14 3.2457C10.4196 2.86887 10.9517 2.79004 11.3285 3.06964Z" fill="black"/>
<path fill-rule="evenodd" clip-rule="evenodd" d="M17.7847 3.06961C18.1616 2.79004 18.6937 2.86888 18.9733 3.24573L24.8962 11.2292C25.1758 11.6061 25.0969 12.1382 24.7201 12.4178C24.3432 12.6973 23.8111 12.6185 23.5315 12.2417L17.6086 4.25816C17.329 3.88132 17.4079 3.34919 17.7847 3.06961Z" fill="black"/>
<path fill-rule="evenodd" clip-rule="evenodd" d="M3.12598 11.7354C3.12598 11.2662 3.50636 10.8858 3.97559 10.8858H25.1377C25.6069 10.8858 25.9873 11.2662 25.9873 11.7354V15.0602C25.9873 15.5294 25.6069 15.9098 25.1377 15.9098H3.97559C3.50636 15.9098 3.12598 15.5294 3.12598 15.0602V11.7354ZM4.8252 12.585V14.2106H24.288V12.585H4.8252Z" fill="black"/>
<path fill-rule="evenodd" clip-rule="evenodd" d="M11.8676 6.20964C12.1994 5.87789 12.7374 5.87796 13.0691 6.2098L14.5566 7.6977L16.0441 6.2098C16.3758 5.87796 16.9138 5.87789 17.2456 6.20964C17.5775 6.54139 17.5775 7.07933 17.2458 7.41117L15.1574 9.50007C14.9981 9.65946 14.782 9.749 14.5566 9.749C14.3312 9.749 14.1151 9.65946 13.9558 9.50007L11.8674 7.41117C11.5357 7.07933 11.5357 6.54139 11.8676 6.20964Z" fill="black"/>
<path fill-rule="evenodd" clip-rule="evenodd" d="M14.5566 2.90228C15.0259 2.90228 15.4062 3.28267 15.4062 3.75189V8.61562C15.4062 9.08485 15.0259 9.46523 14.5566 9.46523C14.0874 9.46523 13.707 9.08485 13.707 8.61562V3.75189C13.707 3.28267 14.0874 2.90228 14.5566 2.90228Z" fill="black"/>
</svg>
