<svg width="307" height="144" viewBox="0 0 307 144" fill="none" xmlns="http://www.w3.org/2000/svg">
<g filter="url(#filter0_d)">
<g clip-path="url(#clip0)">
<path d="M109.237 102.206C109.481 100.322 109.713 98.4287 109.957 96.5448C110.105 95.3529 110.633 93.722 110.335 92.5333C109.983 91.1371 109.226 90.7224 108.017 90.8608C105.138 91.1924 103.438 94.4288 102.379 97.667C102.302 96.2699 102.224 94.861 102.147 93.4638C102.122 93.0428 101.734 92.7765 101.416 92.8239C98.3924 93.3345 95.8673 95.2692 94.2498 98.0601C94.3587 96.9382 94.4774 95.814 94.5745 94.6825C94.6577 93.7859 93.5175 93.6526 93.4227 94.5397C93.0776 97.5927 92.7718 100.637 92.458 103.695C92.3626 104.643 93.5869 104.794 93.6922 103.844C94.2362 99.0753 97.0677 95.462 100.923 94.4834C101.053 96.9295 101.194 99.3852 101.323 101.831C101.369 102.577 102.399 102.723 102.569 101.989C103.179 99.328 103.904 95.7749 105.813 94.0033C106.568 92.8456 107.624 92.7051 109.009 93.5515C108.892 94.4923 108.765 95.4354 108.648 96.3763C108.405 98.2602 108.163 100.156 107.919 102.04C107.784 103.058 109.1 103.212 109.237 102.206Z" fill="white" fill-opacity="0.1"/>
<path d="M121.254 93.2555C119.006 93.3232 116.777 93.8377 114.612 94.5693C113.955 94.7906 114.104 96.0618 114.782 95.8479C116.925 95.17 119.079 94.8307 121.282 94.6026C121.912 94.5337 121.901 93.2315 121.254 93.2555Z" fill="white" fill-opacity="0.1"/>
<path d="M123.101 98.9969C120.775 99.4114 118.396 100.265 116.146 101.04C115.46 101.268 115.592 102.567 116.328 102.389C118.679 101.81 121.152 101.229 123.424 100.278C124.037 100.03 123.716 98.895 123.101 98.9969Z" fill="white" fill-opacity="0.1"/>
<path d="M134.82 89.3814C135.077 88.4213 133.876 87.8384 133.59 88.8051C132.443 92.7095 131.19 96.5279 129.732 100.271C128.787 97.5571 128.561 94.7548 128.984 91.7452C129.11 90.8632 128.019 90.78 127.854 91.6097C127.137 95.3439 127.639 99.0596 129.143 102.415C129.423 103.035 130.088 102.995 130.347 102.376C132.072 98.1947 133.632 93.8682 134.82 89.3814Z" fill="white" fill-opacity="0.1"/>
<path d="M145.028 90.1052C144.999 89.7946 144.726 89.4782 144.471 89.4747C142.01 89.4196 139.83 90.1792 137.799 91.8316C137.212 92.3053 137.899 93.309 138.48 92.861C138.561 92.794 138.656 92.7483 138.748 92.6908C137.129 98.1282 136.036 103.874 136 109.674C135.991 110.59 137.139 110.771 137.203 109.817C137.418 106.647 137.728 103.566 138.228 100.527C138.249 100.534 138.261 100.543 138.273 100.553C143.287 101.837 145.382 94.8295 145.028 90.1052ZM139.987 92.5458C140.062 92.3094 140.009 92.1018 139.923 91.9385C141.147 91.309 142.432 91.0071 143.795 91.0048C143.858 95.0388 142.357 99.2792 138.46 99.0232C138.861 96.8477 139.359 94.6994 139.987 92.5458Z" fill="white" fill-opacity="0.1"/>
</g>
<g clip-path="url(#clip1)">
<path d="M53.4214 72.5942C52.7261 71.6454 51.8069 70.9082 50.7964 70.4976C48.7174 69.1536 46.2555 70.1242 44.9453 72.3004C44.2572 72.9873 43.6911 73.7983 43.4171 74.6448C42.0727 78.8931 45.4051 84.7535 49.1553 84.7375C51.2998 84.727 52.8626 83.3456 53.6467 81.488C55.3402 79.0206 55.3912 75.273 53.4214 72.5942Z" fill="white" fill-opacity="0.1"/>
<path d="M47.9295 56.6579C44.9495 52.8237 41.7907 49.1432 38.4427 45.7589C38.2799 45.5934 38.1171 45.4278 37.9543 45.2623C38.4358 44.2567 38.2909 43.083 37.7625 42.0671C37.7579 42.0329 37.7639 41.9896 37.7412 41.9518C37.2886 40.3172 36.0732 39.7772 34.9996 40.2991C34.5782 40.2604 34.1359 40.3733 33.7888 40.6716C33.371 41.0117 33.1429 41.4558 33.0279 41.9556C32.8006 41.9219 32.5703 41.9098 32.3265 41.9284C28.2187 42.2519 26.56 47.5722 26.8528 51.7879C27.4037 60.1345 32.0611 69.1134 35.7159 76.0714C40.1421 84.5044 45.464 92.2249 51.1675 99.4647C54.4776 103.664 57.8134 107.88 61.9039 110.721C60.59 112.519 62.1118 115.487 63.605 116.571C65.4868 117.932 68.8557 116.64 69.4593 114.002C69.6163 113.333 69.588 112.593 69.4273 111.872C76.2484 106.926 64.9329 84.8266 62.6379 80.1937C58.463 71.7546 53.5199 63.8421 47.9295 56.6579ZM65.0975 88.828C66.6113 92.3951 72.9186 106.313 68.8376 110.222C68.1977 109.073 67.2181 108.235 66.112 108.25C66.094 108.246 66.0654 108.252 66.0549 108.261C65.8139 108.124 65.5459 108.049 65.2705 108.095C64.8448 108.156 64.4601 108.524 64.1175 108.857C63.6574 109.1 63.2426 109.418 62.876 109.79C54.9728 104.651 48.5541 94.3799 43.3356 86.3797C39.8414 81.021 36.6628 75.391 33.9698 69.4011C32.2162 65.4864 24.5263 49.072 29.4311 45.5817C30.3044 44.9647 31.6374 44.7163 32.9497 44.7529C33.5192 46.077 34.8214 47.2678 35.8052 46.995C35.9977 46.9441 36.1811 46.8246 36.3419 46.6673C36.6172 46.6216 36.8729 46.5164 37.1194 46.3427C37.7962 47.021 38.4597 47.8634 39.0597 48.4932C40.9306 50.4743 42.7609 52.5475 44.5206 54.6624C48.6658 59.6715 52.4776 65.0817 55.9212 70.8084C59.3421 76.4973 62.4356 82.544 65.0975 88.828Z" fill="white" fill-opacity="0.1"/>
<path d="M54.0994 40.9881C48.7267 46.3315 45.2828 56.069 42.6285 63.6386C41.1142 67.9758 39.8152 72.4332 38.7045 76.9389C37.7925 80.6055 37.004 84.3188 36.3058 88.0498C35.6195 91.6943 35.2705 95.4498 34.6896 99.1373C34.6166 99.601 34.5542 100.056 34.4812 100.519C33.9742 100.63 33.5114 101.028 33.1404 101.5C32.5952 102.159 32.4044 103.278 32.9429 104.018C33.1455 104.569 33.5298 104.945 34.0057 105.128C33.9091 106.777 33.9057 108.421 34.0785 110.067C34.0831 110.102 34.0876 110.136 34.0922 110.17C34.3488 112.489 35.1483 115.448 36.8616 116.82C37.6964 117.496 38.6616 117.831 39.6712 117.708C42.4818 117.373 44.7491 114.241 46.3884 111.762C48.6086 108.365 50.4113 104.563 52.0513 100.729C53.2162 97.99 54.2861 95.1995 55.3304 92.3927C58.6958 83.4292 61.2372 74.0473 62.931 64.4204C63.8406 59.2858 64.5183 54.0832 64.9116 48.8579C65.1237 46.0982 65.5852 43.0097 64.0057 40.6636C61.4035 36.8483 56.8069 38.2982 54.0994 40.9881ZM63.7354 46.5469C63.8927 47.9009 63.5118 49.6601 63.3891 51.0255C63.1186 54.0072 62.7473 56.98 62.3142 59.9296C61.2766 66.8733 59.7799 73.7153 57.851 80.3942C55.9327 87.0641 53.5927 93.5618 50.8173 99.7846C48.991 103.893 41.3584 122.443 36.0029 113.549C35.935 113.435 35.8612 113.365 35.7768 113.304C35.2428 110.708 35.0352 107.966 35.0562 105.18C35.7932 104.947 36.3172 104.172 36.424 103.259C36.5293 102.291 36.1573 101.217 35.4357 100.73C35.3844 100.697 35.3227 100.674 35.279 100.654C35.973 92.4978 38.2121 84.1013 39.9898 77.0369C41.636 70.5245 43.6497 64.1736 46.1846 58.0812C47.8455 54.0954 54.6289 37.1348 59.8314 39.9178C61.6374 40.8856 63.4912 44.4086 63.7354 46.5469Z" fill="white" fill-opacity="0.1"/>
<path d="M79.3536 68.728C73.1336 64.9104 64.3119 64.9709 57.4452 65.0501C49.1202 65.1419 40.8575 66.5355 32.7208 68.5654C27.1985 69.9328 21.6341 71.3363 17.0293 75.1415C16.859 74.9633 16.6811 74.7726 16.5108 74.5945C15.748 73.7991 15.1775 73.6977 14.3162 74.3616C13.6444 74.8627 12.9789 75.5874 12.845 76.5616C12.6725 77.8171 13.454 79.0164 14.421 79.5407C12.5213 90.2609 35.7301 90.2821 40.4029 90.3702C48.6019 90.5205 56.8067 89.6157 64.8458 87.6888C68.4065 86.8238 71.9473 85.7659 75.4321 84.5079C75.7611 85.0842 76.3039 85.725 76.7064 86.1045C76.9791 86.3474 77.2577 86.4134 77.5586 86.3839C78.0877 86.9218 78.684 87.1729 79.4808 86.6408C80.4714 85.9803 81.2689 84.9703 81.0378 83.5462C80.9695 83.1658 80.868 82.7567 80.7454 82.3656C81.8701 81.7426 82.8694 80.8836 83.4872 79.4936C85.4138 75.1266 82.4945 70.6485 79.3536 68.728ZM79.8576 80.5896C79.6525 80.3267 79.4234 80.1037 79.1598 79.9294C78.2408 79.3256 77.1333 79.4184 76.3914 80.3615C75.9649 80.8999 75.7554 81.6145 75.5233 82.2913C75.4574 82.5007 75.3735 82.7065 75.3076 82.9158C72.9147 83.7889 70.5081 84.5592 68.0848 85.2484C62.3538 86.8525 56.5134 87.9014 50.6437 88.4219C44.7739 88.9425 38.8671 88.9221 32.9985 88.3534C29.4749 88.0028 14.8232 87.0797 15.8541 79.779C16.0256 79.7461 16.2001 79.6916 16.3549 79.5776C16.4466 79.5179 16.5127 79.442 16.5863 79.3787C16.7697 79.2592 16.941 79.0929 17.0716 78.8852C17.4832 78.455 17.8059 77.9295 17.883 77.2332C17.9155 76.8616 17.8563 76.5498 17.758 76.2524C25.6454 69.8931 37.1815 68.6451 46.1713 67.4283C51.8149 66.663 57.4864 66.3701 63.1485 66.7536C66.8525 67.0063 82.5455 67.7791 82.4603 74.6106C82.4138 76.5025 81.1433 79.0645 79.8576 80.5896Z" fill="white" fill-opacity="0.1"/>
</g>
<g clip-path="url(#clip2)">
<path d="M260.421 49.8256C259.726 48.8769 258.807 48.1397 257.796 47.7291C255.717 46.385 253.256 47.3556 251.945 49.5318C251.257 50.2187 250.691 51.0298 250.417 51.8762C249.073 56.1246 252.405 61.985 256.155 61.9689C258.3 61.9585 259.863 60.577 260.647 58.7195C262.34 56.252 262.391 52.5045 260.421 49.8256Z" fill="white" fill-opacity="0.1"/>
<path d="M254.929 33.8894C251.95 30.0552 248.791 26.3746 245.443 22.9903C245.28 22.8248 245.117 22.6593 244.954 22.4937C245.436 21.4881 245.291 20.3144 244.762 19.2986C244.758 19.2643 244.764 19.221 244.741 19.1832C244.289 17.5486 243.073 17.0086 242 17.5305C241.578 17.4919 241.136 17.6047 240.789 17.9031C240.371 18.2431 240.143 18.6873 240.028 19.1871C239.801 19.1534 239.57 19.1413 239.327 19.1599C235.219 19.4833 233.56 24.8037 233.853 29.0193C234.404 37.3659 239.061 46.3449 242.716 53.3028C247.142 61.7359 252.464 69.4563 258.167 76.6962C261.478 80.8957 264.813 85.1114 268.904 87.9529C267.59 89.7504 269.112 92.7188 270.605 93.8027C272.487 95.1635 275.856 93.8716 276.459 91.2336C276.616 90.5641 276.588 89.8248 276.427 89.1038C283.248 84.1573 271.933 62.0581 269.638 57.4251C265.463 48.9861 260.52 41.0736 254.929 33.8894ZM272.098 66.0594C273.611 69.6266 279.919 83.5448 275.838 87.4533C275.198 86.3042 274.218 85.4662 273.112 85.4814C273.094 85.4778 273.065 85.4833 273.055 85.4923C272.814 85.3559 272.546 85.2807 272.271 85.3265C271.845 85.387 271.46 85.7558 271.118 86.0884C270.657 86.3312 270.243 86.6495 269.876 87.0219C261.973 81.8828 255.554 71.6113 250.336 63.6111C246.841 58.2524 243.663 52.6225 240.97 46.6325C239.216 42.7179 231.526 26.3035 236.431 22.8132C237.304 22.1962 238.637 21.9478 239.95 21.9843C240.519 23.3085 241.821 24.4993 242.805 24.2265C242.998 24.1755 243.181 24.056 243.342 23.8988C243.617 23.853 243.873 23.7478 244.119 23.5741C244.796 24.2524 245.46 25.0949 246.06 25.7246C247.931 27.7058 249.761 29.779 251.521 31.8938C255.666 36.9029 259.478 42.3131 262.921 48.0398C266.342 53.7287 269.436 59.7754 272.098 66.0594Z" fill="white" fill-opacity="0.1"/>
<path d="M261.099 18.2195C255.727 23.563 252.283 33.3004 249.629 40.8701C248.114 45.2072 246.815 49.6646 245.704 54.1703C244.792 57.837 244.004 61.5502 243.306 65.2813C242.619 68.9258 242.27 72.6812 241.69 76.3688C241.617 76.8324 241.554 77.287 241.481 77.7506C240.974 77.8618 240.511 78.2597 240.14 78.7312C239.595 79.3908 239.404 80.5093 239.943 81.2492C240.145 81.8006 240.53 82.1766 241.006 82.3594C240.909 84.008 240.906 85.6527 241.078 87.2988C241.083 87.333 241.088 87.3673 241.092 87.4015C241.349 89.7201 242.148 92.6794 243.862 94.0513C244.696 94.7275 245.662 95.0624 246.671 94.9392C249.482 94.6044 251.749 91.472 253.388 88.9938C255.609 85.5964 257.411 81.7942 259.051 77.96C260.216 75.2215 261.286 72.4309 262.33 69.6242C265.696 60.6606 268.237 51.2788 269.931 41.6519C270.841 36.5173 271.518 31.3147 271.912 26.0893C272.124 23.3296 272.585 20.2411 271.006 17.895C268.404 14.0797 263.807 15.5297 261.099 18.2195ZM270.735 23.7783C270.893 25.1323 270.512 26.8915 270.389 28.257C270.119 31.2386 269.747 34.2115 269.314 37.1611C268.277 44.1048 266.78 50.9468 264.851 57.6257C262.933 64.2955 260.593 70.7933 257.817 77.0161C255.991 81.1249 248.358 99.6746 243.003 90.7802C242.935 90.6667 242.861 90.5966 242.777 90.5355C242.243 87.9398 242.035 85.1974 242.056 82.4111C242.793 82.1785 243.317 81.4036 243.424 80.4908C243.529 79.5222 243.157 78.4482 242.436 77.9612C242.384 77.9289 242.323 77.9056 242.279 77.8858C242.973 69.7292 245.212 61.3328 246.99 54.2683C248.636 47.756 250.65 41.4051 253.185 35.3127C254.845 31.3269 261.629 14.3662 266.831 17.1492C268.637 18.117 270.491 21.6401 270.735 23.7783Z" fill="white" fill-opacity="0.1"/>
<path d="M286.354 45.9595C280.134 42.1419 271.312 42.2023 264.445 42.2816C256.12 42.3733 247.857 43.7669 239.721 45.7969C234.198 47.1642 228.634 48.5677 224.029 52.3729C223.859 52.1948 223.681 52.004 223.511 51.8259C222.748 51.0306 222.177 50.9291 221.316 51.593C220.644 52.0941 219.979 52.8189 219.845 53.793C219.673 55.0486 220.454 56.2478 221.421 56.7721C219.521 67.4924 242.73 67.5135 247.403 67.6017C255.602 67.7519 263.807 66.8471 271.846 64.9202C275.406 64.0552 278.947 62.9973 282.432 61.7394C282.761 62.3157 283.304 62.9564 283.706 63.336C283.979 63.5788 284.258 63.6449 284.559 63.6153C285.088 64.1533 285.684 64.4044 286.481 63.8723C287.471 63.2117 288.269 62.2017 288.038 60.7776C287.969 60.3972 287.868 59.9881 287.745 59.5971C288.87 58.9741 289.869 58.1151 290.487 56.725C292.414 52.3581 289.494 47.8799 286.354 45.9595ZM286.858 57.821C286.653 57.5582 286.423 57.3351 286.16 57.1608C285.241 56.557 284.133 56.6498 283.391 57.5929C282.965 58.1313 282.755 58.846 282.523 59.5228C282.457 59.7321 282.373 59.9379 282.308 60.1473C279.915 61.0203 277.508 61.7906 275.085 62.4798C269.354 64.0839 263.513 65.1328 257.644 65.6534C251.774 66.1739 245.867 66.1536 239.999 65.5849C236.475 65.2343 221.823 64.3112 222.854 57.0104C223.026 56.9775 223.2 56.923 223.355 56.809C223.447 56.7493 223.513 56.6734 223.586 56.6101C223.77 56.4907 223.941 56.3244 224.072 56.1167C224.483 55.6865 224.806 55.1609 224.883 54.4646C224.916 54.0931 224.856 53.7812 224.758 53.4839C232.645 47.1246 244.181 45.8766 253.171 44.6597C258.815 43.8945 264.486 43.6016 270.149 43.985C273.853 44.2378 289.545 45.0106 289.46 51.842C289.414 53.7339 288.143 56.2959 286.858 57.821Z" fill="white" fill-opacity="0.1"/>
</g>
<g clip-path="url(#clip3)">
<path d="M187.237 105.801C187.481 103.917 187.713 102.024 187.957 100.14C188.105 98.9479 188.633 97.317 188.335 96.1283C187.983 94.7321 187.226 94.3174 186.017 94.4558C183.138 94.7875 181.438 98.0239 180.379 101.262C180.302 99.8649 180.224 98.456 180.147 97.0589C180.122 96.6378 179.734 96.3716 179.416 96.4189C176.392 96.9295 173.867 98.8642 172.25 101.655C172.359 100.533 172.477 99.4091 172.575 98.2776C172.658 97.3809 171.517 97.2477 171.423 98.1348C171.078 101.188 170.772 104.232 170.458 107.29C170.363 108.238 171.587 108.389 171.692 107.439C172.236 102.67 175.068 99.057 178.923 98.0785C179.053 100.525 179.194 102.98 179.323 105.426C179.369 106.172 180.399 106.318 180.569 105.585C181.179 102.923 181.904 99.37 183.813 97.5983C184.568 96.4406 185.624 96.3001 187.009 97.1465C186.892 98.0874 186.765 99.0304 186.648 99.9713C186.405 101.855 186.163 103.751 185.919 105.635C185.784 106.653 187.1 106.808 187.237 105.801Z" fill="white" fill-opacity="0.1"/>
<path d="M199.254 96.8505C197.006 96.9182 194.777 97.4327 192.612 98.1643C191.955 98.3856 192.104 99.6568 192.782 99.4429C194.925 98.765 197.079 98.4258 199.282 98.1976C199.912 98.1288 199.901 96.8265 199.254 96.8505Z" fill="white" fill-opacity="0.1"/>
<path d="M201.101 102.592C198.775 103.006 196.396 103.86 194.146 104.635C193.46 104.863 193.592 106.162 194.328 105.984C196.679 105.405 199.152 104.824 201.424 103.873C202.037 103.625 201.716 102.49 201.101 102.592Z" fill="white" fill-opacity="0.1"/>
<path d="M212.82 92.9765C213.077 92.0164 211.876 91.4334 211.59 92.4001C210.443 96.3046 209.19 100.123 207.732 103.866C206.787 101.152 206.561 98.3498 206.984 95.3402C207.11 94.4583 206.019 94.375 205.854 95.2048C205.137 98.9389 205.639 102.655 207.143 106.01C207.423 106.63 208.088 106.59 208.347 105.971C210.072 101.79 211.632 97.4632 212.82 92.9765Z" fill="white" fill-opacity="0.1"/>
<path d="M223.028 93.7002C222.999 93.3896 222.726 93.0732 222.471 93.0697C220.01 93.0146 217.83 93.7742 215.799 95.4266C215.212 95.9004 215.899 96.904 216.48 96.4561C216.561 96.389 216.656 96.3433 216.748 96.2859C215.129 101.723 214.036 107.469 214 113.269C213.991 114.185 215.139 114.366 215.203 113.412C215.418 110.242 215.728 107.161 216.228 104.122C216.249 104.129 216.261 104.139 216.273 104.148C221.287 105.432 223.382 98.4245 223.028 93.7002ZM217.987 96.1408C218.062 95.9044 218.009 95.6969 217.923 95.5335C219.147 94.9041 220.432 94.6022 221.795 94.5998C221.858 98.6338 220.357 102.874 216.46 102.618C216.861 100.443 217.359 98.2944 217.987 96.1408Z" fill="white" fill-opacity="0.1"/>
</g>
<g clip-path="url(#clip4)">
<path d="M144.631 61.559C147.792 55.7367 152.057 50.8212 155.249 44.9358C155.507 44.4507 155.226 43.543 154.657 43.7221C153.369 44.1152 152.474 44.7232 151.275 45.4124C150.441 46.0611 149.547 46.5289 148.576 46.796C146.244 45.2724 145.421 43.3657 146.095 41.0829C146.221 40.3719 145.374 40.0416 145.038 40.5687C144.875 40.8155 144.706 41.0467 144.544 41.2935C144.333 41.1474 144.049 41.1346 143.847 41.4023C141.082 45.1113 138.313 48.8316 135.553 52.556C135.087 53.191 135.903 54.1342 136.435 53.5932C139.464 50.5787 142.146 47.2034 144.59 43.5292C144.526 45.3693 144.901 47.1382 146.525 48.0231C148.702 49.2211 150.993 47.3337 153.073 46.0814C151.798 48.3105 150.463 50.4876 149.037 52.5847C147.232 55.2412 145.026 57.6406 143.572 60.6087C143.153 61.4695 144.158 62.4213 144.631 61.559Z" fill="white" fill-opacity="0.1"/>
<path d="M159.613 57.7952C158.01 56.6383 156.2 55.836 154.424 55.1642C153.717 54.8972 153.284 56.1746 153.997 56.4571C155.753 57.1583 157.369 58.1035 159.049 59.0136C159.635 59.3282 160.189 58.208 159.613 57.7952Z" fill="white" fill-opacity="0.1"/>
<path d="M156.588 61.2081C154.934 60.2839 153.249 59.4228 151.584 58.5323C150.942 58.1924 150.56 59.3773 151.185 59.7354C152.84 60.6596 154.493 61.6216 156.161 62.5009C156.84 62.8577 157.26 61.5873 156.588 61.2081Z" fill="white" fill-opacity="0.1"/>
<path d="M170.641 63.4392C169.312 62.5335 167.821 62.3486 166.355 62.8664C165.802 63.0652 165.274 63.3523 164.8 63.7404C165.126 63.0043 165.463 62.2725 165.827 61.5532C166.218 60.7821 165.312 59.9259 164.867 60.6983C163.634 62.8573 162.678 65.1918 161.917 67.6527C161.685 68.3931 162.394 68.9939 162.917 68.5511C164.11 67.5394 164.492 65.7781 165.789 64.8773C167.145 63.926 168.647 63.9748 170.058 64.687C170.665 64.9988 171.248 63.8534 170.641 63.4392Z" fill="white" fill-opacity="0.1"/>
<path d="M179.275 74.6747C179.03 73.1051 178.721 71.5705 178.428 70.0176C179.544 69.1503 180.617 68.2128 181.633 67.2234C182.184 66.6909 181.524 65.6637 180.957 66.1766C180.054 67.0118 179.107 67.7502 178.151 68.4465C177.998 67.5712 177.868 66.6931 177.776 65.794C177.686 64.9216 176.582 65.103 176.64 65.9741C176.717 67.0583 176.802 68.1846 176.931 69.3054C175.661 70.1543 174.361 70.9261 173.021 71.6923C172.318 72.0929 172.757 73.3527 173.488 73.0293C174.753 72.472 175.981 71.7577 177.159 70.9311C177.377 72.3478 177.691 73.731 178.141 75.0217C178.39 75.761 179.395 75.4841 179.275 74.6747Z" fill="white" fill-opacity="0.1"/>
<path d="M193.862 74.1124C192.878 73.7077 191.887 73.3255 190.903 72.9208C191.791 71.554 192.658 70.1521 193.502 68.753C193.54 68.7698 193.587 68.7909 193.633 68.812C195.052 69.3994 196.456 70.0316 197.895 70.5517C198.596 70.8033 199.043 69.5834 198.322 69.2588C196.977 68.6407 195.595 68.108 194.213 67.5754C194.24 67.5235 194.273 67.4871 194.3 67.4352C194.708 66.7483 193.849 65.9776 193.423 66.6561C193.316 66.8257 193.213 66.9841 193.11 67.1425C192.957 67.0863 192.794 67.0259 192.635 66.9542C191.391 66.4582 190.085 65.6142 188.796 66.25C188.166 66.5553 188.565 67.6692 189.203 67.406C190.049 67.0574 191.325 67.6573 192.421 68.215C191.5 69.6182 190.552 71.0088 189.61 72.377C188.807 72.0411 188.008 71.6941 187.223 71.3022C186.565 70.9805 186.15 72.2018 186.814 72.5389C187.477 72.876 188.144 73.2019 188.811 73.5279C187.827 74.9282 186.847 76.3174 185.859 77.729C185.316 78.5084 186.345 79.3816 186.903 78.6597C188.031 77.209 189.094 75.6908 190.124 74.1446C191.26 74.6434 192.42 75.1015 193.592 75.4502C194.207 75.6373 194.478 74.364 193.862 74.1124Z" fill="white" fill-opacity="0.1"/>
</g>
</g>
<defs>
<filter id="filter0_d" x="0" y="0" width="306.207" height="143.188" filterUnits="userSpaceOnUse" color-interpolation-filters="sRGB">
<feFlood flood-opacity="0" result="BackgroundImageFix"/>
<feColorMatrix in="SourceAlpha" type="matrix" values="0 0 0 0 0 0 0 0 0 0 0 0 0 0 0 0 0 0 127 0"/>
<feOffset dy="4"/>
<feGaussianBlur stdDeviation="2"/>
<feColorMatrix type="matrix" values="0 0 0 0 0 0 0 0 0 0 0 0 0 0 0 0 0 0 0.25 0"/>
<feBlend mode="normal" in2="BackgroundImageFix" result="effect1_dropShadow"/>
<feBlend mode="normal" in="SourceGraphic" in2="effect1_dropShadow" result="shape"/>
</filter>
<clipPath id="clip0">
<rect width="54.189" height="25.5589" fill="white" transform="matrix(0.975537 -0.219835 0.155027 0.98791 91 94.5983)"/>
</clipPath>
<clipPath id="clip1">
<rect width="64.9594" height="81.6703" fill="white" transform="matrix(0.758366 -0.651829 0.513574 0.858045 4 65.111)"/>
</clipPath>
<clipPath id="clip2">
<rect width="64.9594" height="81.6703" fill="white" transform="matrix(0.758366 -0.651829 0.513574 0.858045 211 42.3424)"/>
</clipPath>
<clipPath id="clip3">
<rect width="54.189" height="25.5589" fill="white" transform="matrix(0.975537 -0.219835 0.155027 0.98791 169 98.1934)"/>
</clipPath>
<clipPath id="clip4">
<rect width="65.9601" height="21.1964" fill="white" transform="matrix(0.911832 0.410564 -0.299185 0.954195 140.342 37.1487)"/>
</clipPath>
</defs>
</svg>
