<svg width="15" height="24" viewBox="0 0 15 24" fill="none" xmlns="http://www.w3.org/2000/svg">
<path d="M11.2441 6.39219C11.119 4.76395 10.3607 3.7436 9.69209 2.84303C9.07259 2.00956 8.53778 1.28964 8.53778 0.227647C8.53781 0.185814 8.52631 0.144781 8.50454 0.109062C8.48276 0.0733434 8.45156 0.0443212 8.41436 0.0251873C8.37716 0.00605345 8.3354 -0.00245086 8.29368 0.000609623C8.25196 0.0036701 8.21189 0.0181768 8.17788 0.0425344C7.17349 0.761398 6.3352 1.97284 6.0424 3.12856C5.83922 3.93341 5.81271 4.83797 5.80849 5.43542C4.88093 5.23729 4.6706 3.84977 4.66849 3.83463C4.66348 3.79915 4.65015 3.76536 4.62959 3.736C4.60903 3.70665 4.58182 3.68258 4.55019 3.66574C4.51855 3.64891 4.48338 3.63979 4.44755 3.63913C4.41172 3.63847 4.37625 3.64629 4.34402 3.66196C4.29533 3.68542 3.15005 4.26727 3.08354 6.59079C3.07885 6.66856 3.07861 6.74599 3.07861 6.82364C3.07861 9.081 4.91542 10.9177 7.17267 10.9177C7.17574 10.918 7.17885 10.918 7.18193 10.9177H7.18522C9.43753 10.911 11.2675 9.07701 11.2675 6.82364C11.2675 6.70986 11.2441 6.39219 11.2441 6.39219Z" fill="#1B232B"/>
<path d="M8.53508 5.17315C8.97194 5.77764 9.42357 6.40254 9.50311 7.4684C9.50792 7.53163 9.51273 7.5951 9.51273 7.66325C9.51273 8.95868 8.49661 10.0126 7.24739 10.0126C5.99818 10.0126 4.98206 8.95822 4.98206 7.66278C4.98206 7.61879 4.98206 7.57422 4.98499 7.51967C5.00012 6.97336 5.10675 6.60032 5.22359 6.35222C5.44261 6.80972 5.83418 7.23121 6.47011 7.23121C6.6788 7.23121 6.84772 7.06697 6.84772 6.86356C6.84772 6.34013 6.85875 5.73647 6.9926 5.19157C7.11167 4.70826 7.39637 4.19445 7.75698 3.78235C7.91699 4.3168 8.22926 4.75084 8.53508 5.17315Z" fill="white"/>
<path d="M4.3364 17.0716C4.29671 17.0646 4.25594 17.0667 4.21717 17.0778C4.17841 17.0888 4.14265 17.1085 4.11258 17.1353C4.08252 17.1622 4.05895 17.1955 4.04362 17.2328C4.0283 17.2701 4.02164 17.3103 4.02413 17.3506C4.0639 17.984 4.1595 19.3666 4.28573 20.2224C4.45371 21.361 4.48022 22.9452 5.31687 22.994C6.15351 23.0428 6.28935 22.7968 6.33745 22.197C6.38554 21.5972 6.72679 21.0114 7.04493 20.7588C7.36307 20.5063 7.63006 20.373 8.0261 20.3451C8.25004 20.3293 8.53592 20.3272 8.74167 20.3282C8.77684 20.3284 8.81162 20.3355 8.84402 20.3492C8.87641 20.3629 8.90578 20.3828 8.93043 20.4079C8.95508 20.433 8.97451 20.4627 8.98762 20.4953C9.00072 20.528 9.00724 20.5629 9.00679 20.598C8.99788 21.209 8.98333 22.6699 9.04386 22.8232C9.12081 23.0177 9.91194 23.1013 10.5287 22.5761C11.1456 22.0509 11.2604 21.5211 11.4914 19.3816C11.6343 18.0582 11.6829 17.2512 11.6994 16.8282C11.701 16.7855 11.6923 16.7431 11.6741 16.7045C11.6559 16.6658 11.6287 16.6321 11.5948 16.6062C11.5608 16.5803 11.5212 16.5629 11.4791 16.5555C11.437 16.5481 11.3938 16.551 11.3531 16.5638L7.86093 17.6621C7.82015 17.6749 7.77691 17.6778 7.73482 17.6704L4.3364 17.0716Z" stroke="#1B232B" stroke-width="0.83887" stroke-miterlimit="10"/>
<path d="M7.5821 18.7368C7.54594 18.7368 7.50986 18.7336 7.47429 18.7271L2.71311 17.8631L1.9126 10.7328L7.25164 11.9343L7.71618 18.7314L7.60908 18.7361C7.60016 18.7366 7.59101 18.7368 7.5821 18.7368Z" fill="white"/>
<path d="M2.4056 11.2831L6.84571 12.2819L7.2537 18.2512L3.10287 17.4984L2.4056 11.2831ZM1.89202 10.2994C1.65389 10.2994 1.45493 10.4989 1.48144 10.7383L2.28993 17.9362C2.3094 18.1098 2.44525 18.2507 2.62426 18.2832L7.39764 19.1494C7.45849 19.1604 7.52021 19.1659 7.58205 19.1659C7.59769 19.1659 7.61306 19.1656 7.62815 19.1649L8.17363 19.1405L7.65748 11.5869L1.98845 10.3103C1.95699 10.3033 1.92485 10.2997 1.89261 10.2997L1.89202 10.2994Z" fill="#1B232B"/>
<path d="M7.38147 11.9135L12.6792 10.4144L12.6818 17.5071L8.3231 18.6852C8.28129 18.6966 8.23821 18.7026 8.19488 18.7032L7.89821 18.7074L7.38147 11.9135Z" fill="white"/>
<path d="M12.243 10.9916L12.2452 17.1737L8.29967 18.2393L7.84323 12.2363L12.243 10.9916ZM12.7277 9.96372C12.689 9.96372 12.6505 9.96909 12.6133 9.97967L6.91919 11.5908L7.494 19.1495L8.20078 19.1396C8.28048 19.1385 8.35974 19.1274 8.43669 19.1066L12.8369 17.9173C13.0035 17.8731 13.1185 17.7322 13.1185 17.572L13.1159 10.3223C13.1159 10.1181 12.935 9.96313 12.7279 9.96313L12.7277 9.96372Z" fill="#1B232B"/>
<path d="M2.10014 9.95361C2.06366 9.95371 2.02757 9.96117 1.99404 9.97556C1.96051 9.98995 1.93024 10.011 1.90504 10.0374C1.87984 10.0637 1.86023 10.0949 1.84739 10.1291C1.83455 10.1632 1.82875 10.1996 1.83033 10.2361L1.84347 10.5372C1.84598 10.5937 1.86614 10.6481 1.90111 10.6925C1.93608 10.737 1.9841 10.7694 2.03844 10.7852L7.04925 12.237C7.08941 12.2488 7.13175 12.2511 7.17294 12.2436C7.21412 12.2362 7.25302 12.2193 7.28655 12.1943C7.32009 12.1693 7.34734 12.1368 7.36615 12.0994C7.38497 12.062 7.39483 12.0208 7.39496 11.9789C7.39553 11.9224 7.37835 11.867 7.34581 11.8207C7.31327 11.7744 7.26703 11.7395 7.2136 11.7209L2.18965 9.96886C2.16088 9.95878 2.13062 9.95362 2.10014 9.95361Z" fill="#1B232B"/>
<path d="M12.2148 9.57605C12.1768 9.5761 12.1392 9.58451 12.1048 9.60068L7.54665 11.7161C7.48515 11.7447 7.43718 11.7961 7.41287 11.8595C7.38856 11.9228 7.38982 11.9931 7.41637 12.0555C7.44292 12.1179 7.4927 12.1676 7.55518 12.194C7.61766 12.2204 7.68796 12.2215 7.75123 12.1971L12.3078 10.4323C12.3568 10.4133 12.399 10.38 12.4288 10.3367C12.4586 10.2934 12.4747 10.2421 12.4749 10.1896L12.4763 9.83894C12.4764 9.80449 12.4698 9.77035 12.4567 9.73848C12.4437 9.7066 12.4244 9.67763 12.4001 9.6532C12.3758 9.62878 12.347 9.60939 12.3152 9.59615C12.2834 9.58291 12.2493 9.57608 12.2148 9.57605Z" fill="#1B232B"/>
<path d="M1.58599 13.5967C0.945721 13.8313 0.929063 14.7529 1.07535 15.3837C1.22163 16.0144 1.55901 16.4521 2.27893 16.4899C2.99885 16.5277 3.46374 15.8605 3.50667 15.1162C3.54961 14.3719 3.22302 13.9749 2.97714 13.7723C2.73127 13.5697 2.22626 13.3613 1.58599 13.5967Z" fill="white" stroke="#1B232B" stroke-width="0.83887" stroke-miterlimit="10"/>
<path d="M13.1722 12.816C13.5723 12.8463 14.1956 13.4605 13.9999 14.4054C13.8041 15.3503 13.3927 15.6136 12.6977 15.6518C12.0028 15.6899 11.5536 15.0223 11.5119 14.2781C11.4701 13.5339 11.8306 13.1658 12.0959 13.0093C12.3613 12.8528 12.7723 12.7856 13.1722 12.816Z" fill="white" stroke="#1B232B" stroke-width="0.83887" stroke-miterlimit="10"/>
</svg>
