<svg width="694" height="590" viewBox="0 0 694 590" fill="none" xmlns="http://www.w3.org/2000/svg">
<path opacity="0.1" d="M511.873 97.2699C455.393 95.3053 401.593 77.0653 350.227 57.1053C298.861 37.1452 247.984 15.0285 192.857 4.45475C157.4 -2.34704 116.846 -3.3075 88.2837 15.7096C60.7856 34.0456 51.9017 65.6097 47.1282 94.9298C43.5327 116.985 41.4209 140.194 51.2734 160.843C58.1065 175.18 70.2454 187.23 78.6319 201.008C107.84 248.786 87.2015 307.706 55.5495 354.358C40.714 376.248 23.4786 397.142 12.0291 420.42C0.579528 443.698 -4.72636 470.408 5.29199 494.174C15.2318 517.749 38.9076 535.422 64.5468 547.864C116.637 573.142 177.995 580.371 237.869 584.466C370.368 593.538 503.565 589.609 636.413 585.68C685.579 584.222 734.955 582.746 783.319 575.141C810.18 570.915 837.905 564.218 857.41 548.03C882.159 527.485 888.294 492.69 871.713 466.933C843.883 423.721 766.992 412.99 747.513 366.608C736.814 341.086 747.81 312.657 763.361 288.977C796.732 238.195 852.662 193.639 855.612 135.592C857.637 95.7157 830.741 55.7956 789.166 36.9269C745.594 17.0804 685.152 19.595 653.02 52.3292C619.91 86.0587 561.738 98.9987 511.873 97.2699Z" fill="#1DA1F2"/>
<g clip-path="url(#clip0)">
<path d="M482.547 572C588.987 572 675.274 561.179 675.274 547.831C675.274 534.482 588.987 523.661 482.547 523.661C376.107 523.661 289.821 534.482 289.821 547.831C289.821 561.179 376.107 572 482.547 572Z" fill="#3F3D56"/>
<path d="M808.564 341.174L734.059 376.415L799.999 327.138C789.282 310.42 777.242 294.586 763.996 279.789L440.876 360.054L732.744 248.783C719.407 237.023 705.243 226.233 690.361 216.497L198.003 295.756C145.727 361.087 117.23 442.24 117.19 525.892H858.322C858.292 461.016 841.128 397.297 808.564 341.174Z" fill="white"/>
<path d="M650.065 193.617C599.515 168.977 543.998 156.209 487.756 156.288C373.289 156.288 270.949 208.161 202.974 289.665C319.374 264.176 522.035 220.053 650.065 193.617Z" fill="white"/>
<path opacity="0.4" d="M197.366 270.776C210.207 270.776 220.618 260.372 220.618 247.538C220.618 234.704 210.207 224.3 197.366 224.3C184.524 224.3 174.113 234.704 174.113 247.538C174.113 260.372 184.524 270.776 197.366 270.776Z" fill="#00B0FF"/>
<path opacity="0.4" d="M154.332 274.938C163.34 274.938 170.643 267.64 170.643 258.637C170.643 249.634 163.34 242.335 154.332 242.335C145.323 242.335 138.021 249.634 138.021 258.637C138.021 267.64 145.323 274.938 154.332 274.938Z" fill="#00B0FF"/>
<path d="M868 525.149H109V526.636H868V525.149Z" fill="#2F2E41"/>
<path d="M263.776 124.738C263.776 119.906 256.883 115.99 248.38 115.99C248.211 115.99 248.045 115.994 247.878 115.997C245.313 108.138 233.187 102.187 218.613 102.187C206.213 102.187 195.585 106.495 191.11 112.621C187.804 111.746 184.396 111.31 180.976 111.324C167.937 111.324 157.368 117.329 157.368 124.738C157.368 131.467 166.09 137.038 177.461 138.003C185.725 139.513 198.632 140.485 213.138 140.485C237.766 140.485 255.786 135.79 256.238 132.26C260.751 130.735 263.776 127.938 263.776 124.738Z" fill="white"/>
<path d="M635.835 128.456C635.835 123.625 628.942 119.708 620.439 119.708C620.27 119.708 620.104 119.712 619.937 119.715C617.372 111.856 605.246 105.905 590.671 105.905C578.272 105.905 567.644 110.214 563.169 116.339C559.862 115.464 556.455 115.028 553.035 115.042C539.996 115.042 529.426 121.048 529.426 128.456C529.426 135.186 538.149 140.757 549.52 141.721C557.783 143.231 570.691 144.203 585.197 144.203C609.825 144.203 627.845 139.508 628.297 135.979C632.81 134.453 635.835 131.656 635.835 128.456Z" fill="white"/>
<path d="M843.444 65.5826C843.444 57.102 831.345 50.2272 816.419 50.2272C816.124 50.2272 815.831 50.2345 815.538 50.2399C811.036 36.4461 789.752 26 764.171 26C742.406 26 723.752 33.5622 715.897 44.3139C710.093 42.7789 704.113 42.0136 698.109 42.0378C675.223 42.0378 656.671 52.5791 656.671 65.5825C656.671 77.3947 671.981 87.1733 691.94 88.8663C706.444 91.5166 729.099 93.2221 754.562 93.2221C797.789 93.2221 829.42 84.981 830.213 78.7865C838.134 76.1093 843.444 71.1993 843.444 65.5826Z" fill="white"/>
<path d="M533.273 241.596C517.882 215.604 487.43 214.393 487.43 214.393C487.43 214.393 457.757 210.6 438.722 250.186C420.98 287.083 396.493 322.708 434.78 331.345L441.696 309.833L445.978 332.947C451.43 333.339 456.898 333.432 462.36 333.227C503.362 331.904 542.41 333.614 541.153 318.909C539.481 299.362 548.083 266.605 533.273 241.596Z" fill="#2F2E41"/>
<path d="M432.594 469.217C432.142 472.076 431.486 474.899 430.63 477.664C429.667 480.371 428.18 482.874 427.3 485.609C424.492 494.326 428.384 504.045 434.599 510.773C439.989 516.584 446.947 520.713 454.632 522.661C460.239 524.07 466.069 524.273 471.847 524.469C487.848 525.011 504.26 525.496 519.422 520.357C524.212 518.694 528.838 516.593 533.243 514.082C534.634 513.42 535.859 512.456 536.83 511.26C537.986 509.614 538.134 507.481 538.124 505.47C538.09 498.691 536.715 491.947 537.041 485.176C537.222 481.425 537.924 477.677 537.579 473.938C537.1 469.692 535.32 465.697 532.482 462.5C529.645 459.304 525.888 457.062 521.726 456.081C517.425 455.158 512.964 455.661 508.585 456.082C497.219 457.173 485.804 457.683 474.386 457.61C462.719 457.536 451.125 455.756 439.516 455.57C436.083 455.515 436.152 456.573 435.06 459.893C434.053 462.949 433.229 466.063 432.594 469.217Z" fill="#2F2E41"/>
<path d="M465.703 301.828C465.142 304.762 464.536 307.803 462.772 310.214C460.742 312.988 457.433 314.573 455.249 317.227C451.963 321.223 451.774 326.846 451.761 332.019C451.748 336.784 451.845 341.866 454.504 345.822C456.23 348.389 458.855 350.189 461.421 351.917C471.393 358.633 482.168 365.469 494.19 365.691C499.171 365.782 504.513 364.497 507.79 360.747C509.205 358.985 510.318 357.001 511.083 354.876C514.157 347.303 516.02 339.294 516.605 331.142C516.879 327.307 516.853 323.36 515.554 319.741C514.093 315.671 511.14 312.323 509.188 308.464C506.881 303.876 506.037 298.691 506.771 293.609C506.868 293.251 506.838 292.871 506.686 292.532C506.525 292.351 506.325 292.21 506.101 292.119C505.876 292.028 505.634 291.99 505.393 292.009L481.554 290.294C479.334 290.183 477.123 289.931 474.936 289.537C473.651 289.276 470.257 287.452 469.031 287.937C466.763 288.835 466.168 299.395 465.703 301.828Z" fill="#FFB8B8"/>
<path opacity="0.1" d="M465.703 301.828C465.142 304.762 464.536 307.803 462.772 310.214C460.742 312.988 457.433 314.573 455.249 317.227C451.963 321.223 451.774 326.846 451.761 332.019C451.748 336.784 451.845 341.866 454.504 345.822C456.23 348.389 458.855 350.189 461.421 351.917C471.393 358.633 482.168 365.469 494.19 365.691C499.171 365.782 504.513 364.497 507.79 360.747C509.205 358.985 510.318 357.001 511.083 354.876C514.157 347.303 516.02 339.294 516.605 331.142C516.879 327.307 516.853 323.36 515.554 319.741C514.093 315.671 511.14 312.323 509.188 308.464C506.881 303.876 506.037 298.691 506.771 293.609C506.868 293.251 506.838 292.871 506.686 292.532C506.525 292.351 506.325 292.21 506.101 292.119C505.876 292.028 505.634 291.99 505.393 292.009L481.554 290.294C479.334 290.183 477.123 289.931 474.936 289.537C473.651 289.276 470.257 287.452 469.031 287.937C466.763 288.835 466.168 299.395 465.703 301.828Z" fill="black"/>
<path d="M488.5 305.022C507.815 305.022 523.474 289.374 523.474 270.07C523.474 250.766 507.815 235.117 488.5 235.117C469.185 235.117 453.526 250.766 453.526 270.07C453.526 289.374 469.185 305.022 488.5 305.022Z" fill="#FFB8B8"/>
<path d="M470.608 348.355C472.431 350.259 474.362 352.144 476.751 353.261C479.183 354.265 481.794 354.762 484.425 354.721C490.73 354.898 497.564 353.744 501.95 349.214C507.603 343.375 507.417 333.957 511.848 327.146C512.205 326.528 512.692 325.995 513.276 325.585C514.019 325.18 514.859 324.987 515.704 325.027C521.301 324.975 526.176 328.602 530.575 332.059C532.546 333.608 534.566 335.212 535.81 337.388C536.68 339.084 537.276 340.908 537.575 342.79C539.758 353.442 540.465 364.333 541.167 375.183C541.555 381.176 541.943 387.175 541.914 393.181C541.819 412.966 537.217 432.421 532.641 451.671C532.052 454.152 531.245 456.924 528.988 458.112C527.982 458.564 526.901 458.828 525.8 458.89C512.693 460.428 499.56 461.968 486.365 462.171C481.216 462.251 476.068 462.126 470.924 461.798C470.038 461.786 469.16 461.633 468.322 461.344C467.186 460.799 466.209 459.97 465.487 458.938C458.349 449.949 457.928 437.522 457.974 426.048C458.085 397.992 459.088 369.96 460.983 341.95C461.139 339.638 461.173 336.83 459.506 335.011C462.508 339.813 466.682 344.254 470.608 348.355Z" fill="#D0CDE1"/>
<path d="M463.2 307.997C462.019 310.134 453.31 315.44 451.629 317.211C442.235 327.107 425.091 326.735 416.5 337.334C413.477 341.063 411.907 345.749 410.752 350.407C409.118 356.995 408.246 364.18 410.982 370.392C413.615 376.369 419.158 380.502 422.922 385.841C427.054 391.704 428.912 398.822 430.692 405.768C432.007 410.898 433.332 416.154 432.82 421.424C432.238 427.416 429.337 432.902 427.624 438.674C425.911 444.445 425.615 451.319 429.576 455.855C432.486 459.187 437.05 460.508 441.412 461.251C447 462.09 452.634 462.58 458.282 462.719C463.269 462.939 468.766 462.982 472.6 459.787C475.625 457.266 476.94 453.175 477.11 449.242C477.28 445.309 476.461 441.411 475.949 437.509C475.417 433.463 475.213 429.382 475.042 425.304C474.275 407.011 474.17 388.706 474.728 370.389C474.844 366.578 474.985 362.72 474.172 358.994C473.102 354.094 470.452 349.715 468.241 345.213C463.853 336.277 461.777 327.597 462.456 317.665C463.125 307.861 467.403 300.393 463.2 307.997Z" fill="#00B0FF"/>
<path d="M512.312 308.741C514.111 310.589 520.225 311.198 522.513 312.388C524.666 313.382 526.913 314.159 529.219 314.709C537.568 317.116 545.509 320.758 552.778 325.515C554.288 326.398 555.624 327.551 556.718 328.916C557.998 330.696 558.463 332.917 558.897 335.066C560.018 340.614 561.144 346.229 560.892 351.883C560.625 357.885 558.816 363.698 557.021 369.431L550.316 390.856C545.311 406.848 540.274 422.997 538.865 439.694C538.086 448.948 538.432 458.262 539.897 467.432C540.044 468.354 540.168 469.411 539.559 470.119C539.117 470.555 538.536 470.823 537.917 470.874C534.68 471.38 531.548 469.731 528.616 468.271C519.654 463.814 510.089 460.686 500.224 458.987C504.079 453.419 507.053 447.292 509.043 440.819C510.172 436.709 511.062 432.538 511.707 428.325L514.826 410.294C516.095 403.704 516.989 397.047 517.502 390.356C517.738 387.844 517.592 385.312 517.068 382.845C516.349 380.497 515.395 378.227 514.219 376.071C509.078 365.384 506.666 353.188 508.689 341.504C509.574 336.391 511.294 331.271 510.577 326.131C509.887 321.19 510.604 317.349 509.335 312.459C504.126 292.38 508.927 305.264 512.312 308.741Z" fill="#00B0FF"/>
<path d="M416.411 354.231C414.067 359.092 410.149 363.232 408.815 368.46C408.296 370.904 408.074 373.401 408.153 375.897C408.121 379.66 408.101 383.499 409.257 387.08C410.001 389.386 411.212 391.512 412.085 393.772C413.301 396.93 413.842 400.307 413.675 403.686C413.44 408.368 411.848 412.913 411.724 417.599C411.528 424.968 414.939 431.896 418.267 438.475C419.104 436.402 420.385 434.537 422.019 433.01C423.653 431.483 425.602 430.332 427.728 429.636C429.854 428.941 432.106 428.718 434.327 428.983C436.548 429.248 438.685 429.995 440.587 431.172C441.465 430.362 441.559 429.031 441.593 427.837C441.839 419.288 442.076 410.738 442.305 402.188C442.665 388.965 443.008 375.565 439.964 362.692C438.59 356.879 436.452 351.089 432.532 346.581C430.468 344.207 423.461 337.955 420.073 340.614C418.549 341.81 418.906 345.065 418.664 346.714C418.3 349.319 417.54 351.854 416.411 354.231Z" fill="#00B0FF"/>
<path d="M561.577 340.225C562.686 343.674 562.752 347.36 562.774 350.983C562.819 358.374 562.721 365.764 562.48 373.153C562.357 376.935 562.187 380.77 561.039 384.377C560.282 386.755 559.114 388.986 558.333 391.356C555.99 398.46 557.27 406.166 557.471 413.643C557.613 416.063 557.406 418.491 556.857 420.853C555.621 425.488 552.299 429.234 549.98 433.434C547.778 437.423 546.449 441.895 543.819 445.616C541.189 449.337 536.636 452.286 532.222 451.144C528.879 450.278 526.503 447.32 524.859 444.284C521.273 437.608 520.047 429.918 521.378 422.458C523.028 413.383 528.362 405.332 530.286 396.31C532.928 383.922 528.913 371.138 529.032 358.472C528.978 356.487 529.247 354.506 529.83 352.607C530.839 349.714 533.006 347.403 535.008 345.083C537.51 342.183 539.834 339.135 541.968 335.955C543.401 333.819 545.348 328.324 547.889 327.867C553.562 326.847 560.17 335.844 561.577 340.225Z" fill="#00B0FF"/>
<path d="M386.973 463.707C383.836 462.919 380.603 462.576 377.37 462.687C373.974 462.875 370.656 463.783 367.637 465.352C364.619 466.92 361.969 469.112 359.865 471.783C357.76 474.454 356.248 477.543 355.43 480.843C354.612 484.143 354.506 487.579 355.12 490.923C355.903 494.546 357.183 498.043 358.925 501.315C361.471 506.48 364.526 511.633 369.24 514.943C371.998 516.879 375.19 518.086 378.344 519.274L403.174 528.622C406.827 529.997 410.48 531.373 414.169 532.648C432.702 539.05 452.024 542.889 471.598 544.058C477.56 544.413 483.613 544.512 489.429 543.155C490.809 542.833 492.282 542.353 493.081 541.183C493.554 540.359 493.833 539.438 493.897 538.49L495.425 527.8C495.64 526.295 495.847 524.71 495.295 523.294C494.595 521.497 492.84 520.367 491.168 519.407C474.844 510.036 455.783 504.867 442.043 492.007C438.808 488.979 436.101 484.18 432.171 482.124C427.715 479.792 422.466 478.461 417.859 476.312C407.789 471.614 397.888 466.215 386.973 463.707Z" fill="#2F2E41"/>
<path opacity="0.1" d="M411.762 478.119C420.539 480.868 457.593 499.909 463.944 506.557C463.093 506.864 434.208 490.686 433.342 490.426C425.463 488.063 417.541 485.684 410.059 482.226C408.554 481.53 400.281 478.261 400.656 476.363C401.079 474.221 410.204 477.631 411.762 478.119Z" fill="black"/>
<path d="M521.254 549.602C521.752 549.639 522.246 549.493 522.645 549.193C522.82 548.969 522.949 548.711 523.023 548.437C523.098 548.162 523.117 547.875 523.08 547.593C523.066 542.739 523.053 537.884 523.039 533.029C518.849 531.034 514.161 530.395 509.561 529.78L488.094 526.912C488.587 526.978 484.737 536.153 485.328 537.377C486.368 539.536 494.319 541.449 496.563 542.469C504.363 546.012 512.469 549.908 521.254 549.602Z" fill="#FFB8B8"/>
<path d="M453.902 532.979C449.849 533.624 445.325 534.195 442.7 537.348C439.372 541.346 440.789 547.307 442.377 552.261C442.613 553.263 443.086 554.194 443.757 554.975C444.841 556.043 446.502 556.2 448.021 556.296C451.717 556.53 455.651 556.713 458.881 554.901C460.344 553.935 461.752 552.889 463.099 551.767C465.481 550.183 468.099 548.987 470.855 548.223C475.923 546.63 481.14 545.556 486.425 545.017C488.507 544.922 490.569 544.559 492.558 543.936C494.507 543.202 496.311 541.748 496.877 539.745C497.625 537.098 496.086 534.4 494.61 532.079C492.771 529.188 490.823 526.143 488.082 524.015C484.082 520.91 482.103 523.293 478.074 525.28C470.448 529.042 462.3 531.637 453.902 532.979Z" fill="#FFB8B8"/>
<path d="M443.31 536.628L417.574 529.026C414.444 528.101 411.261 527.168 407.997 527.171C404.733 527.173 401.319 528.243 399.202 530.726C397.206 533.066 396.635 536.266 396.138 539.3L395.073 545.792C394.532 549.091 393.991 552.454 394.477 555.761C394.964 559.069 396.654 562.373 399.59 563.974C403.151 565.916 407.516 564.967 411.491 564.155C419.519 562.515 427.686 561.64 435.879 561.541C438.96 561.505 442.191 561.543 444.913 560.101C448.149 558.388 450.084 554.764 450.417 551.119C450.924 545.574 449.074 538.33 443.31 536.628Z" fill="#2F2E41"/>
<path d="M531.37 530.003C534.707 529.419 537.651 527.524 540.848 526.405C545.348 524.831 550.224 524.831 554.991 524.848C556.742 524.855 558.605 524.894 560.062 525.863C562.162 527.26 562.7 530.056 563.057 532.552L565.212 547.611C565.617 550.444 566.02 553.352 565.388 556.143C564.756 558.933 562.853 561.624 560.082 562.344C556.716 563.218 553.417 561.07 550.24 559.658C542.298 556.131 533.066 557.032 524.785 554.396C523.248 553.907 521.602 553.158 520.975 551.673C520.692 550.837 520.591 549.95 520.679 549.071C520.821 544.231 519.799 537.621 521.258 532.995C522.569 528.834 527.646 530.003 531.37 530.003Z" fill="#2F2E41"/>
<path d="M585.833 457.646C590.975 456.358 596.306 455.994 601.576 456.571C605.785 457.035 610.121 458.205 613.194 461.117C616.934 464.66 618.136 470.14 618.236 475.29C618.401 485.547 614.997 495.542 608.606 503.569C607.046 505.6 605.19 507.385 603.1 508.866C600.846 510.276 598.444 511.433 595.937 512.316L540.331 534.236C525.702 540.003 511.021 545.786 495.763 549.587C495.346 549.789 494.892 549.905 494.43 549.928C493.967 549.952 493.504 549.883 493.069 549.725C492.633 549.567 492.234 549.324 491.894 549.009C491.554 548.695 491.28 548.316 491.089 547.894C486.217 540.939 482.13 533.467 478.902 525.614C478.749 525.427 478.643 525.206 478.594 524.97C478.544 524.734 478.552 524.49 478.618 524.257C478.683 524.025 478.803 523.812 478.968 523.636C479.133 523.46 479.338 523.326 479.566 523.246L518.896 500.662C521.714 499.044 524.562 497.403 526.902 495.149C528.601 493.503 529.993 491.566 531.011 489.431C531.827 487.729 531.903 483.713 532.944 482.455C533.964 481.223 537.451 481.125 539.062 480.641C541.334 479.945 543.559 479.105 545.723 478.125C554.521 474.191 562.355 468.476 570.79 463.87C575.52 461.167 580.575 459.076 585.833 457.646Z" fill="#2F2E41"/>
<path opacity="0.1" d="M563.536 474.512C556.779 479.584 548.029 484.247 541.332 489.453C539.047 491.229 500.945 512.638 500.406 515.481C506.654 516.533 546.454 488.707 552.149 485.93C557.843 483.153 562.891 479.238 567.893 475.351C569.168 474.36 574.57 471.383 570.911 470.276C568.849 469.653 565.058 473.498 563.536 474.512Z" fill="black"/>
<path d="M526.469 239.09L496.384 223.341L454.839 229.784L446.243 267.725L467.64 266.902L473.618 252.963V266.673L483.491 266.293L489.221 244.101L492.802 267.725L527.901 267.009L526.469 239.09Z" fill="#2F2E41"/>
<path d="M519.753 316.921H455.015V395.006H519.753V316.921Z" fill="#3F3D56"/>
<path d="M424.282 452.732C425.768 454.95 427.51 457.119 429.897 458.315C431.42 459.01 433.081 459.348 434.754 459.303C436.427 459.259 438.068 458.832 439.551 458.057C442.512 456.47 444.937 454.04 446.517 451.076C449.787 445.306 450.464 438.402 450.056 431.783C449.648 425.164 448.234 418.647 447.608 412.046C447.153 407.247 447.116 402.419 447.079 397.599C446.966 396.585 447.179 395.562 447.687 394.677C448.411 393.689 449.737 393.417 450.912 393.068C457.511 391.108 461.891 384.927 465.031 378.805C467.128 374.717 468.951 370.248 468.547 365.672C468.142 361.096 464.851 356.486 460.278 356.019C456.509 355.635 453.028 358.028 450.308 360.665C443.448 367.361 439.039 376.166 437.79 385.668C437.193 390.32 437.364 395.1 436.098 399.617C433.394 409.261 424.935 415.174 420.719 423.852C416.074 433.415 418.638 444.271 424.282 452.732Z" fill="#FFB8B8"/>
<path d="M548.767 415.886C547.805 418.123 546.405 420.144 544.648 421.831C542.892 423.518 540.815 424.836 538.54 425.708C535.713 426.843 532.594 427.033 529.649 426.252C528.189 425.847 526.841 425.111 525.712 424.101C524.582 423.091 523.701 421.835 523.136 420.43C522.685 419.014 522.438 417.541 522.402 416.056C521.979 409.552 522.143 402.85 524.507 396.776C525.418 394.433 526.648 392.211 527.367 389.803C528.074 387.021 528.436 384.162 528.444 381.292L529.221 363.546C529.35 362.258 529.261 360.957 528.958 359.698C528.182 357.131 525.781 355.462 523.578 353.931C518.257 350.233 512.999 345.917 510.421 339.975C509.535 338.186 509.218 336.169 509.511 334.194C510.238 330.67 513.797 328.389 517.314 327.62C519.615 327.118 521.994 327.085 524.308 327.526C526.622 327.967 528.823 328.871 530.778 330.184C532.733 331.497 534.401 333.192 535.683 335.167C536.965 337.142 537.834 339.356 538.237 341.676C538.585 343.678 538.58 345.724 538.784 347.746C539.216 352.036 540.578 356.172 541.431 360.398C543.531 370.809 542.443 381.571 544.519 391.981C546.256 400.684 552.802 406.363 548.767 415.886Z" fill="#FFB8B8"/>
<path d="M148.164 524.42L146.675 524.391C147.251 507.853 149.016 491.379 151.958 475.095C158.394 440.231 169.095 417.334 183.764 407.04L184.619 408.257C150.351 432.303 148.181 523.501 148.164 524.42Z" fill="#2F2E41"/>
<path d="M166.766 524.064L165.278 524.035C165.31 522.388 166.24 483.569 181.532 472.839L182.386 474.056C167.712 484.353 166.774 523.668 166.766 524.064Z" fill="#2F2E41"/>
<path d="M193.085 408.392C197.195 408.392 200.526 405.063 200.526 400.956C200.526 396.849 197.195 393.519 193.085 393.519C188.976 393.519 185.644 396.849 185.644 400.956C185.644 405.063 188.976 408.392 193.085 408.392Z" fill="#00B0FF"/>
<path d="M189.4 472.348C193.51 472.348 196.841 469.019 196.841 464.911C196.841 460.804 193.51 457.475 189.4 457.475C185.291 457.475 181.959 460.804 181.959 464.911C181.959 469.019 185.291 472.348 189.4 472.348Z" fill="#00B0FF"/>
<path d="M163.298 412.85C164.696 421.777 161.052 429.762 161.052 429.762C161.052 429.762 155.139 423.273 153.741 414.346C152.342 405.419 155.987 397.434 155.987 397.434C155.987 397.434 161.9 403.923 163.298 412.85Z" fill="#2F2E41"/>
<path d="M187.621 434.531C179.069 437.463 170.567 435.267 170.567 435.267C170.567 435.267 175.93 428.318 184.482 425.387C193.035 422.455 201.537 424.651 201.537 424.651C201.537 424.651 196.173 431.6 187.621 434.531Z" fill="#2F2E41"/>
<path d="M187.896 491.17C184.025 492.385 179.903 492.563 175.942 491.686C178.457 488.486 181.845 486.081 185.696 484.76C189.547 483.44 193.699 483.261 197.65 484.245C195.061 487.367 191.698 489.755 187.896 491.17Z" fill="#2F2E41"/>
</g>
<defs>
<clipPath id="clip0">
<rect width="759" height="546" fill="white" transform="translate(109 26)"/>
</clipPath>
</defs>
</svg>
