<svg width="152" height="352" viewBox="0 0 152 352" fill="none" xmlns="http://www.w3.org/2000/svg">
<path fill-rule="evenodd" clip-rule="evenodd" d="M155.113 369.746C154.979 369.325 154.843 368.897 154.711 368.475C152.755 362.183 135.001 310.844 76.0186 309.562C72.3571 309.486 45.7323 350.386 48.9056 352.214C50.5952 353.188 52.3573 354.099 54.1946 354.937C87.7166 370.282 114.719 375.036 126.556 385.956C138.167 396.752 160.987 388.271 155.113 369.746Z" fill="#E2EEF7"/>
<path fill-rule="evenodd" clip-rule="evenodd" d="M88.7364 355.043C104.92 355.171 111.255 336.93 95.074 336.629C89.6169 336.528 83.6229 337.844 77.2206 341.381C65.9849 347.594 63.072 351.454 55.2116 351.36C47.9084 351.266 42.471 349.114 37.9145 346.751C23.2414 339.142 28.2194 354.598 44.7475 354.713C60.0399 354.82 75.4482 354.937 88.7364 355.043Z" fill="#E2EEF7"/>
<path fill-rule="evenodd" clip-rule="evenodd" d="M78.4228 229.074C78.3037 229.149 78.1809 229.23 78.0549 229.317C67.6405 236.543 77.5661 248.667 88.3815 242.056C98.2781 236.006 117.053 226.915 105.645 224.821C95.8521 223.022 84.1412 225.451 78.4228 229.074Z" fill="#E2EEF7"/>
<path fill-rule="evenodd" clip-rule="evenodd" d="M174.467 268.618C172.905 265.781 171.554 262.806 170.578 259.718C167.551 250.137 158.059 228.89 132.289 222.72C125.41 221.073 119.079 220.374 113.359 220.304C107.754 220.235 108.187 233.965 112.5 237.547C130.07 252.138 143.155 300.949 166.135 293.888C182.917 288.767 178.221 275.437 174.467 268.618Z" fill="#E8F5FE"/>
<path fill-rule="evenodd" clip-rule="evenodd" d="M173.72 267.321C172.561 265.391 171.627 263.311 171.006 261.147C170.492 259.359 169.7 256.959 168.53 254.215C164.478 244.716 154.397 250.428 149.663 259.605C145.83 267.034 139.125 277.485 144.437 283.939C150.824 291.701 157.833 296.424 166.135 293.888C184.059 288.418 177.482 273.584 173.72 267.321Z" fill="#E2EEF7"/>
<path fill-rule="evenodd" clip-rule="evenodd" d="M97.8425 221.731C114.442 224.038 127.111 231.616 137.098 241.312C143.042 247.092 145.486 245.53 139.655 239.636C139.316 239.294 138.972 238.958 138.624 238.629C128.22 228.839 114.812 222.014 97.8425 221.731Z" fill="#E2EEF7"/>
<path fill-rule="evenodd" clip-rule="evenodd" d="M88.2333 364.677C87.9303 364.805 87.5771 364.659 87.4607 364.351C85.365 358.809 67.4701 313.595 29.9409 279.021C28.4866 277.681 26.6676 276.79 24.7497 276.308C24.1028 276.145 23.4736 275.978 22.8615 275.806C12.453 272.882 26.7528 260.9 28.869 271.502C29.104 272.679 29.2285 273.945 29.2258 275.309C29.2241 276.187 29.5874 277.073 30.2354 277.665C32.7196 279.934 39.4207 275.889 39.6407 272.531C39.6607 272.226 39.6861 271.918 39.7172 271.608C40.0243 268.541 46.5851 268.286 48.1063 270.967C51.1456 276.325 53.661 282.795 49.1033 290.194C47.659 292.538 47.524 295.6 49.284 297.718C49.6834 298.199 50.0796 298.679 50.4725 299.16C53.9021 303.359 62.9449 303.339 63.9772 298.017C64.9034 293.242 74.0049 292.138 74.5936 296.966C75.2291 302.178 75.1886 307.758 72.5284 312.714C69.8795 317.648 68.1482 323.791 71.0215 328.598C81.7901 346.615 87.4465 360.95 88.5701 363.892C88.6852 364.193 88.5302 364.551 88.2333 364.677ZM26.3248 290.346C31.8217 289.26 36.424 285.649 31.6912 282.65C24.3143 277.975 15.8529 291.169 24.5665 290.579C25.1447 290.54 25.7308 290.464 26.3248 290.346ZM44.5425 311.926C50.7688 312.147 57.0912 308.987 52.1096 305.245C44.71 299.687 34.0647 310.89 43.2706 311.838C43.6903 311.881 44.1143 311.911 44.5425 311.926ZM59.8722 338.311C66.8927 338.934 73.4782 335.346 68.3044 330.56C60.5288 323.367 47.1292 335.215 57.381 337.879C58.187 338.088 59.0166 338.236 59.8722 338.311ZM79.7981 334.588C79.8592 343.821 89.2034 340.388 90.8718 331.308C90.963 330.811 91.0422 330.313 91.1105 329.815C92.4946 319.703 79.7306 324.383 79.7981 334.588Z" fill="#E2EEF7"/>
<path fill-rule="evenodd" clip-rule="evenodd" d="M41.4066 289.746C41.036 289.918 40.5456 289.587 40.2667 289.289C36.9897 285.785 33.5343 282.343 29.9007 278.987C28.4391 277.637 26.6138 276.743 24.6835 276.261C24.0654 276.106 23.4636 275.947 22.8774 275.784C12.4609 272.883 25.5644 259.774 28.5457 270.168C29.4552 273.339 30.6215 277.982 33.0081 280.259C35.8437 282.964 38.5668 285.734 41.1508 288.527C41.5116 288.917 41.8889 289.524 41.4066 289.746ZM39.6897 276.613C39.7408 277.221 39.9274 277.688 40.2568 278.202C44.3592 284.602 47.7149 284.345 50.2225 281.993C51.143 281.13 51.4779 279.819 51.2132 278.585C50.9766 277.482 50.6369 276.41 50.2292 275.372C48.6275 271.29 39.3227 272.244 39.6897 276.613ZM45.4959 301.042C47.073 301.87 47.9375 302.95 48.4946 304.642C48.906 305.891 49.1566 307.199 49.0733 308.441C48.9151 310.803 46.4242 312.053 44.0618 311.911C43.3025 311.865 42.5568 311.774 41.8245 311.644C33.1257 310.096 37.6731 296.935 45.4959 301.042ZM59.3283 324.225C61.2073 325.207 62.7028 326.863 63.1998 328.924C64.1902 333.032 63.3989 337.722 53.3008 335.684C52.3308 335.488 51.3985 335.087 50.5997 334.503C44.3679 329.947 48.6353 319.733 55.8027 322.601C57.044 323.097 58.2196 323.645 59.3283 324.225ZM26.3248 290.346C31.8217 289.26 36.424 285.649 31.6912 282.65C24.3143 277.975 15.8529 291.169 24.5665 290.579C25.1447 290.54 25.7308 290.464 26.3248 290.346Z" fill="#E8F5FE"/>
<path fill-rule="evenodd" clip-rule="evenodd" d="M170.813 369.352C170.814 368.914 170.814 368.47 170.818 368.031C170.874 361.466 169.643 307.003 113.979 287.157C110.683 285.983 72.7921 316.494 75.1247 319.103C76.4413 320.575 77.8469 322.011 79.3474 323.401C106.535 348.583 130.763 361.621 138.67 375.742C146.488 389.657 170.76 388.847 170.813 369.352Z" fill="#E8F5FE"/>
<path fill-rule="evenodd" clip-rule="evenodd" d="M56.1342 258.054C56.1355 258.026 56.1359 257.994 56.1359 258.021C56.1359 257.08 56.1613 259.904 56.441 260.803C64.022 285.168 94.6917 295.111 129.283 317.893C159.045 337.481 162.836 368.412 162.714 383.509C162.713 383.568 162.684 383.617 162.629 383.64C162.521 383.686 162.389 383.601 162.389 383.483C162.271 345.137 146.33 322.326 119.25 305.091C112.546 300.807 105.148 296.901 97.1485 293.182C56.0017 274.054 56.0826 259.159 56.1342 258.054Z" fill="#E2EEF7"/>
<path fill-rule="evenodd" clip-rule="evenodd" d="M170.809 368.961C170.807 368.793 170.808 368.622 170.811 368.455C170.868 365.858 170.976 341.372 155.81 318.808C153.395 315.214 148.213 318.863 145.448 322.195C143.189 324.917 139.745 329.434 138.317 332.67C136.825 336.051 132.543 339.418 121.932 340.534C116.238 341.125 112.192 350.53 116.695 354.065C124.392 360.108 130.746 365.401 135.087 370.606C137.541 373.549 141.069 375.616 144.9 375.498C151.738 375.288 158.165 375.11 164.128 374.954C167.683 374.86 170.846 372.516 170.809 368.961Z" fill="#E2EEF7"/>
<path fill-rule="evenodd" clip-rule="evenodd" d="M141.58 324.336C140.484 324.537 139.728 326.102 140.525 326.881C156.313 342.326 161.172 361.339 162.377 374.889C162.384 374.969 162.321 375.036 162.24 375.036C162.168 375.036 162.108 374.979 162.103 374.907C160.625 353.748 153.814 337.695 142.641 324.727C142.363 324.404 142 324.259 141.58 324.336Z" fill="#E2EEF7"/>
<path fill-rule="evenodd" clip-rule="evenodd" d="M157.082 198.757C166.408 203.996 143.783 200.585 154.252 198.385C155.345 198.155 156.29 198.312 157.082 198.757Z" fill="#E8F5FE"/>
<path fill-rule="evenodd" clip-rule="evenodd" d="M144.129 213.395C137.314 220.706 154.308 207.618 145.513 212.365C144.942 212.667 144.484 213.013 144.129 213.395Z" fill="#E8F5FE"/>
<path fill-rule="evenodd" clip-rule="evenodd" d="M155.783 304.063C165.368 308.958 144.363 300.9 154.761 303.679C155.133 303.776 155.473 303.905 155.783 304.063ZM126.447 316.865C126.156 328.626 130.276 303.692 126.787 314.928C126.571 315.62 126.462 316.265 126.447 316.865ZM145.976 287.016C135.578 284.238 156.598 292.316 147.02 287.409C146.704 287.247 146.356 287.115 145.976 287.016ZM118.002 298.219C121.497 286.962 117.409 311.959 117.662 300.175C117.675 299.57 117.784 298.918 118.002 298.219ZM106.857 288.279C107.831 300.022 109.413 274.73 106.997 286.263C106.849 286.994 106.807 287.665 106.857 288.279ZM130.016 278.921C130.029 282.086 125.103 284.524 122.953 282.203C121.947 281.117 121.841 279.381 122.552 278.083C126.114 271.582 127.012 259.716 120.314 259.34C117.06 259.161 116.681 262.941 117.318 267.351C117.75 270.338 113.599 272.927 111.306 270.964C110.757 270.494 110.386 269.811 110.252 269.1C108.954 262.215 102.737 254.372 97.5188 259.104C93.6169 262.656 101.101 266.952 106.236 269.301C108.218 270.207 110.134 271.309 111.768 272.751C153.467 309.566 158.154 355.79 158.564 361.271C158.586 361.573 158.851 361.798 159.154 361.785C159.438 361.772 159.651 361.552 159.631 361.268C159.367 357.654 157.133 334.702 142.331 308.682C137.227 299.71 139.962 286.824 137.842 276.722C137.367 274.459 136.117 272.799 133.815 272.425C130.883 271.953 129.999 275.005 130.016 278.921ZM95.022 275.955C96.2746 264.247 97.1156 289.555 95.0687 277.96C94.9626 277.359 94.9428 276.692 95.022 275.955Z" fill="white"/>
<path fill-rule="evenodd" clip-rule="evenodd" d="M155.783 304.063C165.368 308.958 144.363 300.9 154.761 303.679C155.133 303.776 155.473 303.905 155.783 304.063ZM147.932 300.286C148.544 298.859 146.895 297.937 145.389 298.316C144.076 298.646 141.56 299.081 141.661 300.431C141.754 301.686 141.876 302.875 142 303.918C142.212 305.716 144.197 306.44 145.273 304.983C146.285 303.611 147.201 301.989 147.932 300.286ZM136.797 299.704C136.695 299.552 136.489 299.529 136.336 299.631C136.121 299.775 135.865 300.159 136.009 300.374C155.659 329.739 158.337 357.495 158.616 361.354C158.635 361.61 158.859 361.8 159.115 361.788C159.413 361.775 159.686 361.488 159.661 361.191C159.303 356.897 156.473 329.054 136.797 299.704ZM133.128 303.989C133.006 303.023 134.145 301.777 134.887 302.407C135.174 302.652 135.431 302.875 135.653 303.07C136.147 303.504 136.103 304.275 135.527 304.591C135.267 304.733 134.997 304.867 134.718 304.993C134.037 305.3 133.221 304.729 133.128 303.989ZM139.225 315.729C139.558 315.956 139.885 316.187 140.204 316.417C143.014 318.45 142.613 322.45 139.179 322.93C141.722 322.365 141.444 317.658 139.225 315.729Z" fill="white"/>
<path fill-rule="evenodd" clip-rule="evenodd" d="M125.467 348.544C133.648 353.211 115.553 345.433 124.568 348.159C124.897 348.26 125.196 348.39 125.467 348.544ZM99.4211 358.735C98.7561 369.002 103.158 347.335 99.7844 357.055C99.5725 357.652 99.455 358.212 99.4211 358.735ZM117.447 333.285C108.409 330.571 126.572 338.269 118.338 333.659C118.069 333.508 117.773 333.383 117.447 333.285ZM92.6638 342.181C96.0445 332.44 91.6721 354.173 92.2994 343.881C92.3316 343.352 92.4494 342.785 92.6638 342.181ZM83.2224 333.106C83.643 343.398 85.8865 321.355 83.4163 331.355C83.2613 331.987 83.2005 332.569 83.2224 333.106ZM103.749 325.74C103.654 328.547 99.2922 330.493 97.4692 328.357C96.6148 327.356 96.5857 325.818 97.2576 324.686C100.563 319.118 101.724 308.834 95.9004 308.291C93.0699 308.023 92.6135 311.296 93.024 315.156C93.304 317.789 89.5914 319.92 87.6624 318.106C87.2082 317.679 86.9143 317.077 86.8212 316.461C85.9088 310.417 80.7137 303.327 76.0184 307.303C72.5761 310.211 78.5889 314.093 82.9849 316.354C84.8979 317.338 86.7445 318.491 88.2987 319.978C123.357 353.529 125.903 393.984 126.081 398.644C126.09 398.899 126.3 399.088 126.556 399.088C126.811 399.088 127.015 398.896 127.005 398.64C126.885 395.521 125.708 376.497 114.611 354.16C110.013 344.905 115.487 330.566 109.927 321.855C109.362 320.969 108.512 320.345 107.321 320.106C104.748 319.612 103.867 322.288 103.749 325.74ZM73.2441 321.894C74.737 311.724 74.7279 333.867 73.2257 323.698C73.1456 323.155 73.1477 322.555 73.2441 321.894Z" fill="white"/>
<path fill-rule="evenodd" clip-rule="evenodd" d="M125.467 348.544C133.647 353.211 115.553 345.433 124.568 348.159C124.897 348.26 125.196 348.39 125.467 348.544ZM118.467 345.453C119.068 344.26 117.663 343.101 116.328 343.135C115.069 343.167 113.186 343.895 113.239 345.153C113.274 345.995 113.323 346.8 113.376 347.535C113.505 349.298 115.398 350.076 116.47 348.671C117.204 347.709 117.884 346.61 118.467 345.453ZM108.753 343.751C108.659 343.602 108.423 343.606 108.301 343.733C108.173 343.866 107.914 344.137 108.011 344.294C119.308 362.471 123.528 379.774 125.122 389.937C125.151 390.123 125.288 390.268 125.47 390.312C125.79 390.39 126.087 390.124 126.037 389.799C124.439 379.516 120.172 362.058 108.753 343.751ZM101.881 344.693C101.697 343.592 102.972 342.914 103.858 343.594C105.247 344.66 106.478 345.738 107.347 346.533C108.046 347.174 107.943 348.28 107.069 348.648C106.51 348.883 105.909 349.079 105.28 349.236C104.058 349.54 102.089 345.935 101.881 344.693ZM99.7843 357.055C103.165 347.314 98.7926 369.047 99.4198 358.755C99.4521 358.225 99.5698 357.659 99.7843 357.055Z" fill="white"/>
<path fill-rule="evenodd" clip-rule="evenodd" d="M195.405 -32.0524C195.587 -31.7612 195.532 -31.4132 195.251 -31.2301C190.217 -27.9514 146.53 1.49294 120.488 53.7924C119.404 55.9687 118.969 58.4288 119.044 60.8863C119.081 62.1002 119.096 63.2687 119.088 64.3936C119 77.7691 98.8867 64.4704 110.475 57.5717C112.052 56.6332 113.9 55.9457 116.071 55.574C117.342 55.3565 118.494 54.5847 119.044 53.4736C120.864 49.7972 117.344 41.8608 113.15 42.6214C109.493 43.2847 103.235 35.3892 105.835 32.8958C110.494 28.4292 116.397 24.3041 125.178 27.7764C128.945 29.2664 133.453 28.7363 135.66 25.6074C136.044 25.0631 136.429 24.5225 136.815 23.9856C140.565 18.7705 138.504 8.92596 131.774 8.69002C125.617 8.47417 121.87 -3.36703 127.748 -4.87655C132.507 -6.09841 137.675 -6.55827 142.96 -4.66185C149.682 -2.25026 157.897 -1.45493 162.72 -6.2264C178.052 -21.3961 191.009 -30.248 194.175 -32.3469C194.543 -32.5909 195.164 -32.436 195.405 -32.0524ZM133.827 56.6057C131.173 50.5574 125.613 45.0464 123.867 51.209C121.28 60.3386 137.651 67.3455 134.435 58.1505C134.256 57.6373 134.054 57.1223 133.827 56.6057ZM151.507 30.0596C149.832 23.0718 144.499 15.5912 142.042 22.181C138.54 31.5714 153.713 41.2624 151.762 31.2355C151.686 30.8451 151.601 30.4531 151.507 30.0596ZM175.456 6.83393C173.885 -1.28215 168.062 -9.12484 164.459 -1.86039C159.277 8.58967 176.712 21.0586 175.787 9.27222C175.724 8.47131 175.616 7.65877 175.456 6.83393ZM164.701 -16.7997C175.65 -18.3913 169.978 -29.2309 158.829 -30.0871C158.121 -30.1414 157.417 -30.1717 156.717 -30.1804C144.633 -30.3315 152.837 -15.0749 164.701 -16.7997Z" fill="#E2EEF7"/>
<path fill-rule="evenodd" clip-rule="evenodd" d="M126.57 37.7152C126.788 38.0989 126.62 38.6849 126.399 39.0487C123.611 43.6451 120.966 48.4659 118.455 53.4871C117.351 55.696 116.906 58.1843 116.982 60.6803C117.018 61.8888 117.033 63.0524 117.025 64.1732C116.937 77.637 96.4191 65.6352 107.495 57.8757C111.543 55.0398 117.334 52.3527 119.617 48.0448C121.391 44.6965 123.231 41.4462 125.138 38.2937C125.496 37.7018 126.215 37.0912 126.57 37.7152ZM112.458 41.9747C113.331 41.7629 113.909 41.3546 114.494 40.7078C119.784 34.8535 118.691 30.8019 115.578 28.0827C114.239 26.9134 112.311 26.6797 110.742 27.399C109.709 27.8722 108.734 28.4475 107.807 29.0892C103.492 32.0769 107.253 43.2385 112.458 41.9747ZM137.621 30.4375C138.008 28.4953 138.895 27.3409 140.643 26.3463C142.078 25.5298 143.66 24.9776 145.27 25.0585C147.544 25.1729 149.031 27.3306 149.555 29.4836C149.746 30.2704 149.9 31.051 150.02 31.8251C151.549 41.6734 135.701 40.0758 137.621 30.4375ZM158.567 9.44532C159.031 7.07572 160.388 4.89768 162.649 3.91128C166.839 2.08302 172.12 2.58083 172.927 15.8035C172.984 16.7269 172.857 17.7007 172.558 18.5646C169.869 26.3306 157.252 24.3006 157.734 16.0399C157.871 13.6995 158.166 11.497 158.567 9.44532ZM131.834 56.3354C129.169 50.2524 123.58 44.7039 121.826 50.9047C119.228 60.0875 135.675 67.1303 132.445 57.8864C132.265 57.3712 132.062 56.8541 131.834 56.3354Z" fill="#E8F5FE"/>
<path fill-rule="evenodd" clip-rule="evenodd" d="M97.8634 7.20124C99.6422 -2.04974 98.1482 17.6523 97.7891 8.25546C97.7741 7.88154 97.8001 7.53038 97.8634 7.20124ZM115.759 29.0726C125.598 26.206 103.778 29.169 113.994 29.2886C114.653 29.2999 115.24 29.2239 115.759 29.0726ZM86.2481 19.9114C86.5469 29.3459 88.0917 9.57798 86.3209 18.8661C86.2587 19.1927 86.2332 19.5409 86.2481 19.9114ZM102.453 40.9445C92.2367 40.8249 114.045 37.8921 104.199 40.7346C103.684 40.8831 103.104 40.957 102.453 40.9445ZM97.0951 52.9512C106.625 49.0877 85.1472 54.1978 95.3613 53.3458C96.0168 53.2902 96.5928 53.1548 97.0951 52.9512ZM83.5987 35.5505C86.2931 34.7104 89.5464 38.1515 88.1335 40.6141C87.4528 41.8007 85.9507 42.357 84.6274 42.0725C78.379 40.7294 68.5616 42.9321 69.9233 48.6873C70.5777 51.4706 73.705 50.9001 77.1184 49.3012C79.5423 48.1658 82.791 50.9693 81.7155 53.4332C81.4567 54.0261 80.9687 54.5229 80.4006 54.827C75.0897 57.6699 70.2077 64.9319 75.4025 68.1673C79.2325 70.559 80.9056 63.4352 81.5873 58.4665C81.8777 56.3497 82.3506 54.238 83.2235 52.2851C103.138 7.72987 139.901 -7.72583 144.252 -9.42288C144.494 -9.51719 144.61 -9.78307 144.528 -10.0292C144.445 -10.2753 144.196 -10.4078 143.954 -10.3131C141.082 -9.18703 124.093 -2.04318 107.079 15.4553C99.677 23.0677 82.4628 22.0569 77.644 31.5309C77.2889 32.229 77.1435 33.0375 77.265 33.9623C77.6098 36.5841 80.3617 36.5598 83.5987 35.5505ZM89.8653 66.1386C79.7966 68.0697 100.652 60.8457 91.5246 65.5876C91.0514 65.8334 90.5004 66.0205 89.8653 66.1386Z" fill="white"/>
</svg>
