<svg width="23" height="23" viewBox="0 0 23 23" fill="none" xmlns="http://www.w3.org/2000/svg">
<g clip-path="url(#clip0)">
<path d="M5.59367 10.75H0.750016C0.335791 10.75 0 11.0858 0 11.5V21.1873C0 21.6014 0.335791 21.9373 0.750016 21.9373H5.59367C6.00785 21.9373 6.34369 21.6015 6.34369 21.1873V11.5C6.34364 11.0857 6.00785 10.75 5.59367 10.75ZM4.84366 20.4373H1.49999V12.25H4.84366V20.4373Z" fill="black"/>
<path d="M13.9218 1.06274H9.0782C8.66402 1.06274 8.32819 1.39849 8.32819 1.81276V21.1873C8.32819 21.6014 8.66398 21.9373 9.0782 21.9373H13.9219C14.336 21.9373 14.6719 21.6015 14.6719 21.1873V1.81271C14.6718 1.39849 14.336 1.06274 13.9218 1.06274ZM13.1718 20.4372H9.82817V2.56273H13.1718V20.4372Z" fill="black"/>
<path d="M22.25 5.90637H17.4064C16.9922 5.90637 16.6564 6.24216 16.6564 6.65639V21.1873C16.6564 21.6014 16.9922 21.9373 17.4064 21.9373H22.25C22.6642 21.9373 23.0001 21.6015 23.0001 21.1873V6.65639C23 6.24221 22.6642 5.90637 22.25 5.90637ZM21.5 20.4373H18.1564V7.4064H21.5V20.4373Z" fill="black"/>
</g>
<defs>
<clipPath id="clip0">
<rect width="23" height="23" fill="white"/>
</clipPath>
</defs>
</svg>
