<svg width="25" height="23" viewBox="0 0 25 23" fill="none" xmlns="http://www.w3.org/2000/svg">
<g clip-path="url(#clip0)">
<path d="M21.1266 14.8682C19.7786 13.6157 18.1742 12.6885 16.4238 12.1272C18.2986 10.9273 19.5303 8.91915 19.5303 6.64844C19.5303 2.9825 16.3207 0 12.3756 0C8.43056 0 5.22097 2.9825 5.22097 6.64844C5.22097 8.91915 6.45268 10.9273 8.32754 12.1272C6.57707 12.6885 4.97268 13.6157 3.62476 14.8682C1.28731 17.0403 0 19.9282 0 23H1.93369C1.93369 17.6497 6.61792 13.2969 12.3756 13.2969C18.1334 13.2969 22.8176 17.6497 22.8176 23H24.7513C24.7513 19.9282 23.464 17.0403 21.1266 14.8682ZM12.3756 11.5C9.4968 11.5 7.15466 9.32362 7.15466 6.64844C7.15466 3.97325 9.4968 1.79688 12.3756 1.79688C15.2545 1.79688 17.5966 3.97325 17.5966 6.64844C17.5966 9.32362 15.2545 11.5 12.3756 11.5Z" fill="black"/>
</g>
<defs>
<clipPath id="clip0">
<rect width="24.7513" height="23" fill="white"/>
</clipPath>
</defs>
</svg>
